<?xml version="1.0" encoding="UTF-8" standalone="no"?>
<!-- Created with Inkscape (http://www.inkscape.org/) -->

<svg
   xmlns:dc="http://purl.org/dc/elements/1.1/"
   xmlns:cc="http://creativecommons.org/ns#"
   xmlns:rdf="http://www.w3.org/1999/02/22-rdf-syntax-ns#"
   xmlns:svg="http://www.w3.org/2000/svg"
   xmlns="http://www.w3.org/2000/svg"
   xmlns:sodipodi="http://sodipodi.sourceforge.net/DTD/sodipodi-0.dtd"
   xmlns:inkscape="http://www.inkscape.org/namespaces/inkscape"
   width="67mm"
   height="90mm"
   viewBox="0 0 237.40144 318.89745"
   id="svg3612"
   version="1.1"
   inkscape:version="0.91 r13725"
   sodipodi:docname="boat1.svg">
  <defs
     id="defs3614" />
  <sodipodi:namedview
     id="base"
     pagecolor="#ffffff"
     bordercolor="#666666"
     borderopacity="1.0"
     inkscape:pageopacity="0.0"
     inkscape:pageshadow="2"
     inkscape:zoom="0.35"
     inkscape:cx="375"
     inkscape:cy="520"
     inkscape:document-units="px"
     inkscape:current-layer="layer1"
     showgrid="false"
     inkscape:window-width="1366"
     inkscape:window-height="706"
     inkscape:window-x="-8"
     inkscape:window-y="-8"
     inkscape:window-maximized="1" />
  <metadata
     id="metadata3617">
    <rdf:RDF>
      <cc:Work
         rdf:about="">
        <dc:format>image/svg+xml</dc:format>
        <dc:type
           rdf:resource="http://purl.org/dc/dcmitype/StillImage" />
        <dc:title></dc:title>
      </cc:Work>
    </rdf:RDF>
  </metadata>
  <g
     inkscape:label="Layer 1"
     inkscape:groupmode="layer"
     id="layer1"
     transform="translate(0,-733.46451)">
    <g
       id="g3646"
       transform="matrix(0.62349409,0,0,0.62349409,-90.576634,364.10579)">
      <path
         id="path6936"
         d="m 322.53244,1009.2358 12.45117,0 0,-379.5996 -12.45117,0 z m 0,0"
         style="fill:#8f3a11;fill-opacity:1;fill-rule:evenodd;stroke:none"
         inkscape:connector-curvature="0" />
      <path
         id="path6938"
         d="m 335.55491,731.48679 c 55.61035,61.4502 99.61914,129.87305 114.7998,215.55665 l -168.50586,0 c 38.13964,-17.08985 85.22949,-97.43165 53.70606,-215.55665"
         style="fill:#579463;fill-opacity:1;fill-rule:evenodd;stroke:none"
         inkscape:connector-curvature="0" />
      <path
         id="path6940"
         d="m 344.32932,834.36765 c 0.4248,0.49317 0.8789,0.98633 1.37695,1.55274 -0.52735,-0.24414 -1.02539,-0.49316 -1.48438,-0.70312 0.0341,-0.28809 0.0684,-0.56642 0.10738,-0.84962 M 345.42302,821.77 c 1.05956,0.1416 2.26562,0.21484 3.64746,0.2832 -1.45509,0.53223 -2.72461,1.06445 -3.75489,1.55762 0.0341,-0.60059 0.0733,-1.20118 0.10738,-1.84082"
         style="fill:#ffa13f;fill-opacity:1;fill-rule:evenodd;stroke:none"
         inkscape:connector-curvature="0" />
      <path
         id="path6944"
         d="M 321.10387,629.6362 C 234.25329,723.66942 158.5111,824.2114 146.44566,962.11668 l 262.25586,0 C 349.33629,938.51804 272.00231,792.37058 321.10387,629.6362"
         style="fill:#73c587;fill-opacity:1;fill-rule:evenodd;stroke:none"
         inkscape:connector-curvature="0" />
      <path
         id="path6946"
         d="m 150.73137,985.37142 359.96583,0 0,31.30858 c -120.49317,42.8418 -296.21583,86.1084 -359.96583,-31.30858"
         style="fill:#8f3a11;fill-opacity:1;fill-rule:evenodd;stroke:none"
         inkscape:connector-curvature="0" />
      <path
         id="path6948"
         d="m 324.02169,1049.2163 30.45899,54.4433 32.86621,0 0,-54.4433 z m 0,0"
         style="fill:#8f3a11;fill-opacity:1;fill-rule:evenodd;stroke:none"
         inkscape:connector-curvature="0" />
      <path
         id="path6950"
         d="m 488.17209,1015.2514 9.72657,48.4668 9.9414,0 0,-48.4668 z m 0,0"
         style="fill:#8f3a11;fill-opacity:1;fill-rule:evenodd;stroke:none"
         inkscape:connector-curvature="0" />
      <path
         id="path6952"
         d="m 334.98361,634.79734 78.08106,22.43164 -78.08106,17.40722 z m 0,0"
         style="fill:#579463;fill-opacity:1;fill-rule:evenodd;stroke:none"
         inkscape:connector-curvature="0" />
      <path
         inkscape:connector-curvature="0"
         id="path3414"
         d="m 234.53998,961.22589 -86.78572,-0.36812 0,-4.28414 c 0,-2.35627 0.97185,-10.7546 2.15967,-18.66294 13.25718,-88.26487 52.55856,-168.08183 126.20876,-256.31667 15.11043,-18.10269 41.89414,-48.07077 42.45846,-47.50645 0.25987,0.25988 -0.7808,5.26942 -2.31262,11.13233 -13.92077,53.28063 -14.6938,115.84461 -2.091,169.23126 5.78183,24.49239 17.81743,59.19906 20.97196,60.47619 0.64691,0.26191 1.1762,1.46848 1.1762,2.68127 0,3.05294 10.25196,21.4691 20.4127,36.66845 10.50489,15.71416 27.59941,33.87042 38.67033,41.0721 l 8.36873,5.44392 -41.22587,0.40046 c -22.67425,0.22025 -80.27946,0.23481 -128.0116,0.0323 l 0,6e-5 z"
         style="fill:#ffffff" />
      <path
         inkscape:connector-curvature="0"
         id="path3416"
         d="M 375.01847,935.71385 C 363.35255,923.22209 350.03229,903.9185 341.85315,887.651 l -5.65042,-11.23811 3.5251,-13.97894 c 1.93881,-7.68841 3.96599,-18.73694 4.50485,-24.55229 0.53886,-5.81535 1.88791,-12.01979 2.99788,-13.78764 1.10998,-1.76786 1.45557,-3.21429 0.76799,-3.21429 -0.68758,0 -1.65067,-10.44643 -2.1402,-23.21428 -0.76379,-19.9209 -3.0802,-37.89 -7.48503,-58.06379 l -1.05886,-4.8495 5.75079,6.27807 c 10.79085,11.78025 32.02233,39.10746 43.16949,55.56379 28.60379,42.22722 46.23328,80.27847 57.31157,123.70051 3.10009,12.15099 5.63652,23.03924 5.63652,24.1961 0,1.78953 -4.77504,2.10339 -32.00174,2.10339 l -32.00174,0 -10.16088,-10.88017 z"
         style="fill:#ffffff" />
      <path
         inkscape:connector-curvature="0"
         id="path3418"
         d="m 334.89712,654.55199 0,-19.18488 8.92857,2.55704 c 4.91071,1.40638 21.965,6.32498 37.89842,10.93022 l 28.96986,8.37318 -36.827,8.21414 c -20.25485,4.51778 -37.30914,8.23238 -37.89842,8.25467 -0.58929,0.0223 -1.07143,-8.59268 -1.07143,-19.14437 z"
         style="fill:#ffffff" />
    </g>
  </g>
</svg>
