<?xml version="1.0" encoding="UTF-8" standalone="no"?>
<!-- Created with Inkscape (http://www.inkscape.org/) -->

<svg
   xmlns:dc="http://purl.org/dc/elements/1.1/"
   xmlns:cc="http://creativecommons.org/ns#"
   xmlns:rdf="http://www.w3.org/1999/02/22-rdf-syntax-ns#"
   xmlns:svg="http://www.w3.org/2000/svg"
   xmlns="http://www.w3.org/2000/svg"
   xmlns:sodipodi="http://sodipodi.sourceforge.net/DTD/sodipodi-0.dtd"
   xmlns:inkscape="http://www.inkscape.org/namespaces/inkscape"
   width="55mm"
   height="27mm"
   viewBox="0 0 194.88178 95.66924"
   id="svg3445"
   version="1.1"
   inkscape:version="0.91 r13725"
   sodipodi:docname="clouds.svg">
  <defs
     id="defs3447" />
  <sodipodi:namedview
     id="base"
     pagecolor="#ffffff"
     bordercolor="#666666"
     borderopacity="1.0"
     inkscape:pageopacity="0.0"
     inkscape:pageshadow="2"
     inkscape:zoom="0.35"
     inkscape:cx="375"
     inkscape:cy="520"
     inkscape:document-units="px"
     inkscape:current-layer="layer1"
     showgrid="false"
     inkscape:window-width="1366"
     inkscape:window-height="706"
     inkscape:window-x="-8"
     inkscape:window-y="-8"
     inkscape:window-maximized="1" />
  <metadata
     id="metadata3450">
    <rdf:RDF>
      <cc:Work
         rdf:about="">
        <dc:format>image/svg+xml</dc:format>
        <dc:type
           rdf:resource="http://purl.org/dc/dcmitype/StillImage" />
        <dc:title></dc:title>
      </cc:Work>
    </rdf:RDF>
  </metadata>
  <g
     inkscape:label="Layer 1"
     inkscape:groupmode="layer"
     id="layer1"
     transform="translate(0,-956.69247)">
    <g
       transform="matrix(0.72274689,0,0,0.72274689,-763.72926,623.46508)"
       id="g3426">
      <g
         transform="matrix(1.2234211,0,0,-1.25,1286.6896,537.22184)"
         id="g174">
        <path
           d="m 0,0 0,0 c 0,6.824 -7.062,12.358 -15.772,12.358 -1.876,0 -3.675,-0.257 -5.344,-0.729 -0.828,6.214 -7.535,11.059 -15.686,11.059 -8.267,0 -15.044,-4.984 -15.714,-11.326 -1.906,0.64 -4.004,0.996 -6.21,0.996 -8.711,0 -15.773,-5.534 -15.773,-12.358 -8.711,0 -15.772,-5.534 -15.772,-12.359 0,-6.825 7.061,-12.358 15.772,-12.358 3.441,0 6.623,0.866 9.214,2.331 1.059,-6.02 7.646,-10.657 15.621,-10.657 7.356,0 13.537,3.946 15.28,9.283 2.792,-3.474 7.728,-5.785 13.356,-5.785 5.869,0 10.986,2.515 13.703,6.242 2.189,-0.902 4.68,-1.414 7.325,-1.414 8.712,0 15.773,5.533 15.773,12.358 C 15.773,-5.534 8.712,0 0,0"
           style="fill:#f1f3ee;fill-opacity:1;fill-rule:nonzero;stroke:none"
           id="path176"
           inkscape:connector-curvature="0" />
      </g>
      <g
         transform="matrix(1.2234211,0,0,-1.25,1193.0087,516.25023)"
         id="g178">
        <path
           d="m 0,0 0,0 c 0,7.332 -7.587,13.278 -16.947,13.278 -2.015,0 -3.948,-0.277 -5.741,-0.783 -0.89,6.677 -8.096,11.882 -16.854,11.882 -8.882,0 -16.164,-5.356 -16.883,-12.169 -2.048,0.688 -4.302,1.07 -6.673,1.07 -9.359,0 -16.947,-5.946 -16.947,-13.278 -9.359,0 -16.947,-5.946 -16.947,-13.279 0,-7.333 7.588,-13.279 16.947,-13.279 3.697,0 7.116,0.932 9.9,2.505 1.138,-6.468 8.216,-11.45 16.784,-11.45 7.903,0 14.545,4.239 16.418,9.974 3,-3.733 8.302,-6.216 14.349,-6.216 6.306,0 11.804,2.702 14.723,6.707 2.353,-0.969 5.03,-1.52 7.871,-1.52 9.361,0 16.948,5.946 16.948,13.279 C 16.948,-5.946 9.361,0 0,0"
           style="fill:#f1f3ee;fill-opacity:1;fill-rule:nonzero;stroke:none"
           id="path180"
           inkscape:connector-curvature="0" />
      </g>
    </g>
  </g>
</svg>
