<?xml version="1.0" encoding="UTF-8" standalone="no"?>
<!-- Created with Inkscape (http://www.inkscape.org/) -->

<svg
   xmlns:dc="http://purl.org/dc/elements/1.1/"
   xmlns:cc="http://creativecommons.org/ns#"
   xmlns:rdf="http://www.w3.org/1999/02/22-rdf-syntax-ns#"
   xmlns:svg="http://www.w3.org/2000/svg"
   xmlns="http://www.w3.org/2000/svg"
   xmlns:sodipodi="http://sodipodi.sourceforge.net/DTD/sodipodi-0.dtd"
   xmlns:inkscape="http://www.inkscape.org/namespaces/inkscape"
   width="19mm"
   height="22mm"
   viewBox="0 0 67.3228 77.952729"
   id="svg4170"
   version="1.1"
   inkscape:version="0.91 r13725"
   sodipodi:docname="fish1.svg">
  <defs
     id="defs4172" />
  <sodipodi:namedview
     id="base"
     pagecolor="#ffffff"
     bordercolor="#666666"
     borderopacity="1.0"
     inkscape:pageopacity="0.0"
     inkscape:pageshadow="2"
     inkscape:zoom="0.35"
     inkscape:cx="375"
     inkscape:cy="520"
     inkscape:document-units="px"
     inkscape:current-layer="layer1"
     showgrid="false"
     inkscape:window-width="1366"
     inkscape:window-height="706"
     inkscape:window-x="-8"
     inkscape:window-y="-8"
     inkscape:window-maximized="1" />
  <metadata
     id="metadata4175">
    <rdf:RDF>
      <cc:Work
         rdf:about="">
        <dc:format>image/svg+xml</dc:format>
        <dc:type
           rdf:resource="http://purl.org/dc/dcmitype/StillImage" />
        <dc:title></dc:title>
      </cc:Work>
    </rdf:RDF>
  </metadata>
  <g
     inkscape:label="Layer 1"
     inkscape:groupmode="layer"
     id="layer1"
     transform="translate(0,-974.40972)">
    <g
       transform="matrix(1.0218079,0,0,1.0218079,-471.80037,303.52976)"
       id="g4149">
      <path
         inkscape:connector-curvature="0"
         id="path807"
         d="m 492.52344,693.96094 c 0,0 25.39062,0.64453 27.66797,4.36718 1.1914,1.94532 -5.77344,5.33985 -9.99219,10.57813 -3.84375,4.77344 -4.8125,11.55078 -6.95703,10.93359 -4.5,-1.29687 -10.71875,-25.8789 -10.71875,-25.8789"
         style="fill:#cf3a21;fill-opacity:1;fill-rule:nonzero;stroke:none" />
      <path
         inkscape:connector-curvature="0"
         id="path809"
         d="m 499.76562,697.91797 c -4.8125,6.10937 -13.71484,7.11719 -21.48046,0.99609 -7.76954,-6.12109 -9.73438,-19.23828 -6.64844,-23.15625 3.08594,-3.91797 16.30469,-5.07812 24.07031,1.04297 7.76953,6.12109 8.87109,15.01172 4.05859,21.11719"
         style="fill:#e34223;fill-opacity:1;fill-rule:nonzero;stroke:none" />
      <path
         inkscape:connector-curvature="0"
         id="path811"
         d="m 486.38281,680.09375 c 0,2.01172 -1.6289,3.64453 -3.64453,3.64453 -2.00781,0 -3.64062,-1.63281 -3.64062,-3.64453 0,-2.01172 1.63281,-3.64063 3.64062,-3.64063 2.01563,0 3.64453,1.62891 3.64453,3.64063"
         style="fill:#ffffff;fill-opacity:1;fill-rule:nonzero;stroke:none" />
      <path
         inkscape:connector-curvature="0"
         id="path813"
         d="m 484.67578,680.09375 c 0,1.07031 -0.86719,1.93359 -1.9375,1.93359 -1.06641,0 -1.92969,-0.86328 -1.92969,-1.93359 0,-1.06641 0.86328,-1.93359 1.92969,-1.93359 1.07031,0 1.9375,0.86718 1.9375,1.93359"
         style="fill:#3f3f3f;fill-opacity:1;fill-rule:nonzero;stroke:none" />
      <path
         inkscape:connector-curvature="0"
         id="path815"
         d="m 485.28125,679.73437 c 0,0.63282 -0.51563,1.14844 -1.14844,1.14844 -0.63281,0 -1.14844,-0.51562 -1.14844,-1.14844 0,-0.63281 0.51563,-1.14453 1.14844,-1.14453 0.63281,0 1.14844,0.51172 1.14844,1.14453"
         style="fill:#ffffff;fill-opacity:1;fill-rule:nonzero;stroke:none" />
    </g>
  </g>
</svg>
