<?xml version="1.0" encoding="UTF-8" standalone="no"?>
<!-- Created with Inkscape (http://www.inkscape.org/) -->

<svg
   xmlns:dc="http://purl.org/dc/elements/1.1/"
   xmlns:cc="http://creativecommons.org/ns#"
   xmlns:rdf="http://www.w3.org/1999/02/22-rdf-syntax-ns#"
   xmlns:svg="http://www.w3.org/2000/svg"
   xmlns="http://www.w3.org/2000/svg"
   xmlns:sodipodi="http://sodipodi.sourceforge.net/DTD/sodipodi-0.dtd"
   xmlns:inkscape="http://www.inkscape.org/namespaces/inkscape"
   width="13mm"
   height="15mm"
   viewBox="0 0 46.06297 53.14958"
   id="svg4215"
   version="1.1"
   inkscape:version="0.91 r13725"
   sodipodi:docname="fish2small.svg">
  <defs
     id="defs4217" />
  <sodipodi:namedview
     id="base"
     pagecolor="#ffffff"
     bordercolor="#666666"
     borderopacity="1.0"
     inkscape:pageopacity="0.0"
     inkscape:pageshadow="2"
     inkscape:zoom="0.35"
     inkscape:cx="375"
     inkscape:cy="520"
     inkscape:document-units="px"
     inkscape:current-layer="layer1"
     showgrid="false"
     inkscape:window-width="1366"
     inkscape:window-height="706"
     inkscape:window-x="-8"
     inkscape:window-y="-8"
     inkscape:window-maximized="1" />
  <metadata
     id="metadata4220">
    <rdf:RDF>
      <cc:Work
         rdf:about="">
        <dc:format>image/svg+xml</dc:format>
        <dc:type
           rdf:resource="http://purl.org/dc/dcmitype/StillImage" />
        <dc:title></dc:title>
      </cc:Work>
    </rdf:RDF>
  </metadata>
  <g
     inkscape:label="Layer 1"
     inkscape:groupmode="layer"
     id="layer1"
     transform="translate(0,-999.213)">
    <g
       transform="matrix(0.86177517,0,0,0.86177517,-513.22453,459.10192)"
       id="g4194">
      <path
         inkscape:connector-curvature="0"
         id="path783"
         d="m 626.71875,653.875 c 0,0 -15.78125,0.39844 -17.19531,2.71094 -0.74219,1.21093 3.58593,3.32031 6.20703,6.57422 2.39062,2.96875 2.99219,7.17968 4.32422,6.79687 2.79687,-0.80469 6.66406,-16.08203 6.66406,-16.08203"
         style="fill:#cf3a21;fill-opacity:1;fill-rule:nonzero;stroke:none" />
      <path
         inkscape:connector-curvature="0"
         id="path785"
         d="m 622.21484,656.33594 c 2.99219,3.79297 8.52344,4.42187 13.35157,0.61718 4.82812,-3.80468 6.05078,-11.96093 4.13281,-14.39453 -1.92188,-2.43359 -10.13281,-3.15625 -14.96094,0.64844 -4.82812,3.80469 -5.51562,9.33203 -2.52344,13.12891"
         style="fill:#e34223;fill-opacity:1;fill-rule:nonzero;stroke:none" />
      <path
         inkscape:connector-curvature="0"
         id="path787"
         d="m 630.53125,645.25391 c 0,1.2539 1.01562,2.26562 2.26562,2.26562 1.25,0 2.26563,-1.01172 2.26563,-2.26562 0,-1.25 -1.01563,-2.26172 -2.26563,-2.26172 -1.25,0 -2.26562,1.01172 -2.26562,2.26172"
         style="fill:#ffffff;fill-opacity:1;fill-rule:nonzero;stroke:none" />
      <path
         inkscape:connector-curvature="0"
         id="path789"
         d="m 631.59375,645.25391 c 0,0.66406 0.53906,1.20312 1.20312,1.20312 0.66407,0 1.20313,-0.53906 1.20313,-1.20312 0,-0.66407 -0.53906,-1.19922 -1.20313,-1.19922 -0.66406,0 -1.20312,0.53515 -1.20312,1.19922"
         style="fill:#3f3f3f;fill-opacity:1;fill-rule:nonzero;stroke:none" />
      <path
         inkscape:connector-curvature="0"
         id="path791"
         d="m 631.21875,645.03125 c 0,0.39453 0.31641,0.71484 0.71094,0.71484 0.39453,0 0.71484,-0.32031 0.71484,-0.71484 0,-0.39453 -0.32031,-0.71484 -0.71484,-0.71484 -0.39453,0 -0.71094,0.32031 -0.71094,0.71484"
         style="fill:#ffffff;fill-opacity:1;fill-rule:nonzero;stroke:none" />
    </g>
  </g>
</svg>
