<?xml version="1.0" encoding="UTF-8" standalone="no"?>
<!-- Created with Inkscape (http://www.inkscape.org/) -->

<svg
   xmlns:dc="http://purl.org/dc/elements/1.1/"
   xmlns:cc="http://creativecommons.org/ns#"
   xmlns:rdf="http://www.w3.org/1999/02/22-rdf-syntax-ns#"
   xmlns:svg="http://www.w3.org/2000/svg"
   xmlns="http://www.w3.org/2000/svg"
   xmlns:sodipodi="http://sodipodi.sourceforge.net/DTD/sodipodi-0.dtd"
   xmlns:inkscape="http://www.inkscape.org/namespaces/inkscape"
   width="12mm"
   height="30mm"
   viewBox="0 0 42.519665 106.29915"
   id="svg3445"
   version="1.1"
   inkscape:version="0.91 r13725"
   sodipodi:docname="girl.svg">
  <defs
     id="defs3447" />
  <sodipodi:namedview
     id="base"
     pagecolor="#ffffff"
     bordercolor="#666666"
     borderopacity="1.0"
     inkscape:pageopacity="0.0"
     inkscape:pageshadow="2"
     inkscape:zoom="0.98994949"
     inkscape:cx="375"
     inkscape:cy="45.511981"
     inkscape:document-units="px"
     inkscape:current-layer="layer1"
     showgrid="false"
     inkscape:window-width="1366"
     inkscape:window-height="706"
     inkscape:window-x="-8"
     inkscape:window-y="-8"
     inkscape:window-maximized="1" />
  <metadata
     id="metadata3450">
    <rdf:RDF>
      <cc:Work
         rdf:about="">
        <dc:format>image/svg+xml</dc:format>
        <dc:type
           rdf:resource="http://purl.org/dc/dcmitype/StillImage" />
        <dc:title></dc:title>
      </cc:Work>
    </rdf:RDF>
  </metadata>
  <g
     inkscape:label="Layer 1"
     inkscape:groupmode="layer"
     id="layer1"
     transform="translate(0,-946.06342)">
    <g
       id="g4840"
       transform="matrix(0.28838458,0,0,0.28838461,-159.59663,836.51095)">
      <path
         id="path501"
         d="m 624.286,393.67664 c -90.4248,0 -61.18652,155.95703 0.19043,155.95703 61.38184,0 90.23437,-155.95703 -0.19043,-155.95703"
         style="fill:#e6972b;fill-opacity:1;fill-rule:evenodd;stroke:none"
         inkscape:connector-curvature="0" />
      <path
         id="path503"
         d="m 605.92663,719.29676 c -4.21387,6.10351 -9.83399,9.61425 -11.23535,14.01855 -0.79102,2.49024 -0.20508,5.63965 2.32421,5.95215 10.88867,1.34765 14.05274,-3.99902 17.92969,-5.08789 6.69922,-1.87988 6.875,-5.73242 4.16016,-14.88281 -2.70996,-9.1504 -9.78516,-5.70801 -13.17871,0"
         style="fill:#fad9bd;fill-opacity:1;fill-rule:evenodd;stroke:none"
         inkscape:connector-curvature="0" />
      <path
         id="path505"
         d="m 599.57409,603.28601 49.80957,0 -6.35742,116.01075 -13.17871,0 -2.68067,-88.23731 c -0.20996,-6.99219 -5.16601,-7.03613 -5.38086,0 l -2.68066,88.23731 -13.17871,0 z m 0,0"
         style="fill:#fad9bd;fill-opacity:1;fill-rule:evenodd;stroke:none"
         inkscape:connector-curvature="0" />
      <path
         id="path507"
         d="m 654.12975,518.33972 -4.74609,84.94629 -49.81446,0 -4.74121,-84.94629 z m 0,0"
         style="fill:#fad9bd;fill-opacity:1;fill-rule:evenodd;stroke:none"
         inkscape:connector-curvature="0" />
      <path
         id="path509"
         d="m 624.47643,472.30457 c 7.88086,0 14.33106,6.45019 14.33106,14.33105 l 0,31.11328 c 0,7.88575 -6.4502,14.33106 -14.33106,14.33106 -7.88085,0 -14.33105,-6.44531 -14.33105,-14.33106 l 0,-31.11328 c 0,-7.88086 6.4502,-14.33105 14.33105,-14.33105"
         style="fill:#fad9bd;fill-opacity:1;fill-rule:evenodd;stroke:none"
         inkscape:connector-curvature="0" />
      <path
         id="path511"
         d="m 646.80554,532.92469 34.4287,34.03808 c 4.35548,4.30664 13.97461,-5.11718 10.39551,-9.41406 l -28.80371,-34.56055 c -9.32129,-11.18652 -25.86914,0.2002 -16.0205,9.93653"
         style="fill:#fad9bd;fill-opacity:1;fill-rule:evenodd;stroke:none"
         inkscape:connector-curvature="0" />
      <path
         id="path513"
         d="m 638.80749,507.76355 c 0,11.96777 -28.66211,11.96777 -28.66211,0 0,-11.96289 28.66211,-11.96289 28.66211,0"
         style="fill:#deb899;fill-opacity:1;fill-rule:evenodd;stroke:none"
         inkscape:connector-curvature="0" />
      <path
         id="path515"
         d="m 624.47643,398.05163 c -62.70019,0 -57.8955,58.7793 -45.93262,79.45801 16.32324,28.22266 38.28125,34.46778 45.93262,34.46778 7.65625,0 29.60937,-6.24512 45.9375,-34.46778 11.9629,-20.67871 16.7627,-79.45801 -45.9375,-79.45801"
         style="fill:#fad9bd;fill-opacity:1;fill-rule:evenodd;stroke:none"
         inkscape:connector-curvature="0" />
      <path
         id="path517"
         d="m 601.6444,528.11024 -7.20704,49.02831 c -0.8789,5.98145 -12.79785,2.70509 -12.68066,-2.82226 l 0.94239,-44.73633 c 0.30274,-14.39454 20.93261,-14.98535 18.94531,-1.46972"
         style="fill:#fad9bd;fill-opacity:1;fill-rule:evenodd;stroke:none"
         inkscape:connector-curvature="0" />
      <path
         id="path519"
         d="m 596.49304,610.12195 c 0.48339,-0.32715 1.08397,0.32715 1.12792,0.89356 l 0.625,8.4082 c 0.044,0.57129 -0.50292,0.84961 -0.98145,1.17675 -0.4834,0.32228 -1.08397,-0.32714 -1.12792,-0.89355 l -0.62989,-8.4082 c -0.039,-0.57129 0.40528,-1.09864 0.98634,-1.17676"
         style="fill:#fad9bd;fill-opacity:1;fill-rule:evenodd;stroke:none"
         inkscape:connector-curvature="0" />
      <path
         id="path521"
         d="m 597.64049,613.7157 -0.27344,-3.61328 -11.94824,1.71875 0.27833,3.61328 c 1.15234,10.88867 13.30077,11.49902 11.94335,-1.71875"
         style="fill:#fad9bd;fill-opacity:1;fill-rule:evenodd;stroke:none"
         inkscape:connector-curvature="0" />
      <path
         id="path523"
         d="m 597.49889,611.16687 -2.583,-34.73145 c -2.23145,-9.19921 -15.01954,-8.99413 -13.27638,2.41212 l 4.01857,33.98926 z m 0,0"
         style="fill:#fad9bd;fill-opacity:1;fill-rule:evenodd;stroke:none"
         inkscape:connector-curvature="0" />
      <path
         id="path525"
         d="m 656.98131,575.3368 c -0.0244,-0.57129 -0.92285,-0.64454 -1.41113,-0.33204 l -7.28027,4.58008 c -0.49317,0.3125 -0.39551,0.90332 -0.3711,1.47461 0.0244,0.56641 0.92285,0.64454 1.41602,0.33204 l 7.2754,-4.58497 c 0.49316,-0.30762 0.65917,-0.97656 0.37108,-1.46972"
         style="fill:#fad9bd;fill-opacity:1;fill-rule:evenodd;stroke:none"
         inkscape:connector-curvature="0" />
      <path
         id="path527"
         d="m 663.76354,524.10632 5.32226,6.3916 -16.333,10.32715 -3.36914,62.46094 -49.81446,0 -2.70996,-59.66309 -14.36035,-4.6582 0.2002,-9.38476 c 26.875,8.23243 57.11914,11.5332 81.06445,-5.47364"
         style="fill:#8599b3;fill-opacity:1;fill-rule:evenodd;stroke:none"
         inkscape:connector-curvature="0" />
      <path
         id="path529"
         d="m 599.57409,603.28601 1.84082,33.65723 45.99609,0 1.97266,-33.65723 -25.20508,-31.57226 z m 0,0"
         style="fill:#8599b3;fill-opacity:1;fill-rule:evenodd;stroke:none"
         inkscape:connector-curvature="0" />
      <path
         id="path531"
         d="m 643.05554,719.29676 c 4.21875,6.10351 9.83397,9.61425 11.23535,14.01855 0.7959,2.49024 0.20507,5.63965 -2.32423,5.95215 -10.88867,1.34765 -14.04785,-3.99902 -17.9248,-5.08789 -6.7041,-1.87988 -6.875,-5.73242 -4.16503,-14.88281 2.70996,-9.1504 9.78515,-5.70801 13.17871,0"
         style="fill:#fad9bd;fill-opacity:1;fill-rule:evenodd;stroke:none"
         inkscape:connector-curvature="0" />
      <path
         id="path533"
         d="m 568.90514,448.21764 c 4.07715,-1.01562 9.02832,4.43849 11.06446,12.17774 2.03125,7.74414 0.37598,14.83399 -3.70606,15.84961 -4.07715,1.01074 -9.02831,-4.44336 -11.06445,-12.18261 -2.03125,-7.73926 -0.37598,-14.83399 3.70605,-15.84474"
         style="fill:#fad9bd;fill-opacity:1;fill-rule:evenodd;stroke:none"
         inkscape:connector-curvature="0" />
      <path
         id="path535"
         d="m 680.07702,448.21764 c -4.07715,-1.01562 -9.0332,4.43849 -11.06445,12.17774 -2.03125,7.74414 -0.37598,14.83399 3.70117,15.84961 4.07715,1.01074 9.0332,-4.44336 11.06934,-12.18261 2.03125,-7.73926 0.37597,-14.83399 -3.70606,-15.84474"
         style="fill:#fad9bd;fill-opacity:1;fill-rule:evenodd;stroke:none"
         inkscape:connector-curvature="0" />
      <path
         id="path537"
         d="m 641.22936,466.00573 c 2.14355,0 3.8916,-3.11035 3.8916,-6.92871 0,-3.81835 -1.74805,-6.9287 -3.8916,-6.9287 -2.13867,0 -3.88672,3.11035 -3.88672,6.9287 0,3.81836 1.74805,6.92871 3.88672,6.92871"
         style="fill:#3f4f54;fill-opacity:1;fill-rule:evenodd;stroke:none"
         inkscape:connector-curvature="0" />
      <path
         id="path539"
         d="m 607.7235,466.00573 c 2.14355,0 3.8916,-3.11035 3.8916,-6.92871 0,-3.81835 -1.74805,-6.9287 -3.8916,-6.9287 -2.13867,0 -3.88671,3.11035 -3.88671,6.9287 0,3.81836 1.74804,6.92871 3.88671,6.92871"
         style="fill:#3f4f54;fill-opacity:1;fill-rule:evenodd;stroke:none"
         inkscape:connector-curvature="0" />
      <path
         id="path541"
         d="m 644.7108,484.16979 c -7.53906,7.50489 -32.4707,7.40723 -40.46386,0 11.09375,4.62403 28.21289,4.55567 40.46386,0"
         style="fill:#bd946e;fill-opacity:1;fill-rule:evenodd;stroke:none"
         inkscape:connector-curvature="0" />
      <path
         id="path543"
         d="m 632.34264,473.83777 c -3.01758,7.48535 -12.70996,7.35351 -15.73241,0 4.41893,4.08691 11.07421,4.27734 15.73241,0"
         style="fill:#deb899;fill-opacity:1;fill-rule:evenodd;stroke:none"
         inkscape:connector-curvature="0" />
      <path
         id="path545"
         d="m 586.76648,436.32312 c -9.49219,8.32031 -8.89649,20.3418 -8.25197,28.67676 0.64942,8.33495 -3.02246,2.45116 -5.26855,-4.08204 -2.2461,-6.53808 -3.84277,-13.12011 -3.33985,-20.49805 0.50294,-7.37303 21.39162,-19.18456 16.86037,-4.09667"
         style="fill:#e6972b;fill-opacity:1;fill-rule:evenodd;stroke:none"
         inkscape:connector-curvature="0" />
      <path
         id="path547"
         d="m 678.07018,450.87389 c -8.31543,-3.84276 -16.43067,-6.51855 -26.03515,-8.17382 -2.36329,-13.72559 -6.31348,-20.99609 -8.82813,-24.32129 2.18261,7.98829 3.88184,16.01074 5.2002,23.75 -16.9629,-2.44629 -35.01465,-1.80176 -51.68946,1.21583 1.34766,-8.11524 3.10547,-16.55763 5.40527,-24.96583 -2.59765,3.43263 -6.72362,11.06445 -9.05273,25.66895 -8.24707,1.68456 -14.47265,3.18848 -21.62598,5.95215 -3.13965,-24.59472 12.43165,-55.71289 52.43653,-55.71289 40.06836,0 57.48535,31.36718 54.18945,56.5869"
         style="fill:#e6972b;fill-opacity:1;fill-rule:evenodd;stroke:none"
         inkscape:connector-curvature="0" />
      <path
         id="path549"
         d="m 662.24499,436.32312 c 9.49706,8.32031 8.90136,20.3418 8.25195,28.67676 -0.64452,8.33495 3.02246,2.45116 5.26855,-4.08204 2.2461,-6.53808 3.84766,-13.12011 3.34474,-20.49805 -0.50781,-7.37303 -21.39162,-19.18456 -16.86524,-4.09667"
         style="fill:#e6972b;fill-opacity:1;fill-rule:evenodd;stroke:none"
         inkscape:connector-curvature="0" />
      <path
         id="path551"
         d="m 598.22643,728.03211 c -1.63574,1.77734 -2.94922,3.45215 -3.53515,5.2832 -2.05079,6.43555 3.68163,6.60645 8.36426,6.00098 6.24511,-0.80567 8.84765,-4.28223 11.88964,-5.13672 6.02051,-1.68946 6.77246,-4.97071 4.89258,-12.25586 -0.25391,6.35743 -6.19628,8.08105 -12.79785,11.21581 -6.60156,3.12989 -11.91895,0.0292 -8.81348,-5.10741"
         style="fill:#637a99;fill-opacity:1;fill-rule:evenodd;stroke:none"
         inkscape:connector-curvature="0" />
      <path
         id="path553"
         d="m 650.76061,728.03211 c 1.64063,1.77734 2.94922,3.45215 3.53515,5.2832 2.34864,7.36816 -6.01562,6.81153 -10.74706,5.53223 -4.58496,-1.24512 -6.87989,-3.93067 -9.50684,-4.66797 -6.02051,-1.68946 -6.76757,-4.97071 -4.89257,-12.25586 0.25879,6.35743 6.20116,8.08105 12.79785,11.21581 6.60156,3.12989 11.91894,0.0292 8.81347,-5.10741"
         style="fill:#637a99;fill-opacity:1;fill-rule:evenodd;stroke:none"
         inkscape:connector-curvature="0" />
      <path
         id="path555"
         d="m 633.87585,491.22546 c -3.50099,4.61915 -15.08301,4.55079 -18.79884,0 5.41993,2.14356 13.38379,2.15332 18.79884,0"
         style="fill:#deb899;fill-opacity:1;fill-rule:evenodd;stroke:none"
         inkscape:connector-curvature="0" />
      <path
         id="path557"
         d="m 655.51648,575.18542 25.74706,-20.18066 c 8.89649,-3.82324 17.08496,7.51465 6.67481,13.04688 l -26.6504,17.31933 z m 0,0"
         style="fill:#fad9bd;fill-opacity:1;fill-rule:evenodd;stroke:none"
         inkscape:connector-curvature="0" />
      <path
         id="path559"
         d="m 653.33874,576.61609 3.13476,-1.96777 5.79101,10.29785 -3.12987,1.96778 c -9.63379,5.66894 -17.46094,-3.37891 -5.7959,-10.29786"
         style="fill:#fad9bd;fill-opacity:1;fill-rule:evenodd;stroke:none"
         inkscape:connector-curvature="0" />
      <path
         id="path561"
         d="m 639.47643,443.53503 c 3.81348,-0.89844 8.19825,1.18164 10.07325,4.4873 0.94237,1.65528 0.29785,1.85548 -0.3418,0.84474 -2.48047,-3.94044 -6.20605,-4.31641 -9.49219,-3.63281 -1.74316,0.36132 -2.19239,-1.24024 -0.23926,-1.69923"
         style="fill:#e6972b;fill-opacity:1;fill-rule:evenodd;stroke:none"
         inkscape:connector-curvature="0" />
      <path
         id="path563"
         d="m 609.51061,443.53503 c -3.81836,-0.89844 -8.19825,1.18164 -10.07812,4.4873 -0.94239,1.65528 -0.29785,1.85548 0.3418,0.84474 2.48046,-3.94044 6.20605,-4.31641 9.49219,-3.63281 1.74316,0.36132 2.19237,-1.24024 0.24413,-1.69923"
         style="fill:#e6972b;fill-opacity:1;fill-rule:evenodd;stroke:none"
         inkscape:connector-curvature="0" />
      <path
         id="path565"
         d="m 669.0858,530.49792 c -27.60254,26.27442 -74.63379,14.08692 -86.58202,8.4668 l 0.1416,-9.37988 c 12.55371,5.24902 53.61816,13.45703 80.97167,-5.2539 z m 0,0"
         style="fill:#637a99;fill-opacity:1;fill-rule:evenodd;stroke:none"
         inkscape:connector-curvature="0" />
    </g>
  </g>
</svg>
