<?xml version="1.0" encoding="UTF-8" standalone="no"?>
<!-- Created with Inkscape (http://www.inkscape.org/) -->

<svg
   xmlns:dc="http://purl.org/dc/elements/1.1/"
   xmlns:cc="http://creativecommons.org/ns#"
   xmlns:rdf="http://www.w3.org/1999/02/22-rdf-syntax-ns#"
   xmlns:svg="http://www.w3.org/2000/svg"
   xmlns="http://www.w3.org/2000/svg"
   xmlns:sodipodi="http://sodipodi.sourceforge.net/DTD/sodipodi-0.dtd"
   xmlns:inkscape="http://www.inkscape.org/namespaces/inkscape"
   width="202mm"
   height="60mm"
   viewBox="0 0 715.74801 212.5983"
   id="svg11359"
   version="1.1"
   inkscape:version="0.91 r13725"
   sodipodi:docname="hills.svg">
  <defs
     id="defs11361">
    <clipPath
       clipPathUnits="userSpaceOnUse"
       id="clipPath416">
      <path
         d="M 271.723,280.867 C 250.132,265.843 231.548,247.545 216,225 l 0,0 c -8.708,-13.291 -16.142,-26.798 -22.425,-40.702 l 0,0 201.176,0 c 8.306,22.582 18.763,44.383 38.888,57.544 l 0,0 c -41.165,20.791 -93.888,39.244 -151.365,39.244 l 0,0 c -3.536,0 -7.051,-0.083 -10.551,-0.219"
         id="path418"
         inkscape:connector-curvature="0" />
    </clipPath>
    <clipPath
       clipPathUnits="userSpaceOnUse"
       id="clipPath424">
      <path
         d="m 365.941,249.34 54.27,0 0,-95.37 -54.27,0 0,95.37 z"
         id="path426"
         inkscape:connector-curvature="0" />
    </clipPath>
    <clipPath
       clipPathUnits="userSpaceOnUse"
       id="clipPath440">
      <path
         d="m 338.917,259.708 57.138,0 0,-109.238 -57.138,0 0,109.238 z"
         id="path442"
         inkscape:connector-curvature="0" />
    </clipPath>
    <clipPath
       clipPathUnits="userSpaceOnUse"
       id="clipPath456">
      <path
         d="m 308.028,266.582 65.587,0 0,-116.177 -65.587,0 0,116.177 z"
         id="path458"
         inkscape:connector-curvature="0" />
    </clipPath>
    <clipPath
       clipPathUnits="userSpaceOnUse"
       id="clipPath472">
      <path
         d="m 277.005,274.164 70.445,0 0,-130.909 -70.445,0 0,130.909 z"
         id="path474"
         inkscape:connector-curvature="0" />
    </clipPath>
    <clipPath
       clipPathUnits="userSpaceOnUse"
       id="clipPath488">
      <path
         d="m 243.763,279.534 77.364,0 0,-136.309 -77.364,0 0,136.309 z"
         id="path490"
         inkscape:connector-curvature="0" />
    </clipPath>
    <clipPath
       clipPathUnits="userSpaceOnUse"
       id="clipPath504">
      <path
         d="m 210.465,283.501 85.425,0 0,-133.129 -85.425,0 0,133.129 z"
         id="path506"
         inkscape:connector-curvature="0" />
    </clipPath>
  </defs>
  <sodipodi:namedview
     id="base"
     pagecolor="#ffffff"
     bordercolor="#666666"
     borderopacity="1.0"
     inkscape:pageopacity="0.0"
     inkscape:pageshadow="2"
     inkscape:zoom="0.49497475"
     inkscape:cx="271.49759"
     inkscape:cy="466.69893"
     inkscape:document-units="px"
     inkscape:current-layer="layer1"
     showgrid="false"
     inkscape:window-width="1366"
     inkscape:window-height="706"
     inkscape:window-x="-8"
     inkscape:window-y="-8"
     inkscape:window-maximized="1" />
  <metadata
     id="metadata11364">
    <rdf:RDF>
      <cc:Work
         rdf:about="">
        <dc:format>image/svg+xml</dc:format>
        <dc:type
           rdf:resource="http://purl.org/dc/dcmitype/StillImage" />
        <dc:title></dc:title>
      </cc:Work>
    </rdf:RDF>
  </metadata>
  <g
     inkscape:label="Layer 1"
     inkscape:groupmode="layer"
     id="layer1"
     transform="translate(0,-839.76439)">
    <g
       id="g3677"
       transform="matrix(0.78948751,0,0,0.78948751,70.106486,222.59936)">
      <g
         id="g3667">
        <g
           id="g264"
           transform="matrix(1.25,0,0,-1.25,393.3746,788.69815)">
          <path
             d="m 0,0 -21.38,-92.556 21.4,0 0,92.471 L 0,0 Z"
             style="fill:#858b0b;fill-opacity:1;fill-rule:nonzero;stroke:none"
             id="path266"
             inkscape:connector-curvature="0" />
        </g>
        <g
           id="g268"
           transform="matrix(1.25,0,0,-1.25,393.39911,788.8044)">
          <path
             d="m 0,0 0,-92.471 21.363,0 L 0,0 Z"
             style="fill:#737900;fill-opacity:1;fill-rule:nonzero;stroke:none"
             id="path270"
             inkscape:connector-curvature="0" />
        </g>
        <g
           id="g280"
           transform="matrix(1.25,0,0,-1.25,454.68573,792.56415)">
          <path
             d="m 0,0 -19.053,-82.478 19.071,0 0,82.402 L 0,0 Z"
             style="fill:#858b0b;fill-opacity:1;fill-rule:nonzero;stroke:none"
             id="path282"
             inkscape:connector-curvature="0" />
        </g>
        <g
           id="g284"
           transform="matrix(1.25,0,0,-1.25,454.7076,792.65878)">
          <path
             d="m 0,0 0,-82.402 19.037,0 L 0,0 Z"
             style="fill:#737900;fill-opacity:1;fill-rule:nonzero;stroke:none"
             id="path286"
             inkscape:connector-curvature="0" />
        </g>
      </g>
      <g
         id="g3552">
        <g
           id="g244"
           transform="matrix(1.25,0,0,-1.25,811.54598,1047.8193)">
          <path
             d="m 0,0 -542.725,0 c 0,0 128.417,138.998 278.286,138.998 C -114.569,138.998 0,0 0,0"
             style="fill:#b4b92d;fill-opacity:1;fill-rule:nonzero;stroke:none"
             id="path246"
             inkscape:connector-curvature="0" />
        </g>
        <g
           id="g248"
           transform="matrix(1.25,0,0,-1.25,313.01948,807.03915)">
          <path
             d="m 0,0 -21.381,-92.556 21.401,0 0,92.471 L 0,0 Z"
             style="fill:#858b0b;fill-opacity:1;fill-rule:nonzero;stroke:none"
             id="path250"
             inkscape:connector-curvature="0" />
        </g>
        <g
           id="g252"
           transform="matrix(1.25,0,0,-1.25,313.04386,807.1454)">
          <path
             d="m 0,0 0,-92.471 21.362,0 L 0,0 Z"
             style="fill:#737900;fill-opacity:1;fill-rule:nonzero;stroke:none"
             id="path254"
             inkscape:connector-curvature="0" />
        </g>
        <g
           id="g256"
           transform="matrix(1.25,0,0,-1.25,312.86811,823.58514)">
          <path
             d="m 0,0 -0.639,-21.673 -6.64,6.367 6.563,-8.995 -0.284,-9.643 -10.208,9.872 10.103,-13.412 -0.299,-10.227 -12.313,11.985 12.208,-15.449 -1.037,-27.508 2.687,0 0,73.91 L 0,0 Z"
             style="fill:#291401;fill-opacity:1;fill-rule:nonzero;stroke:none"
             id="path258"
             inkscape:connector-curvature="0" />
        </g>
        <g
           id="g260"
           transform="matrix(1.25,0,0,-1.25,314.76011,887.91739)">
          <path
             d="M 0,0 12.446,15.74 -0.104,3.524 -0.401,13.675 9.938,27.394 -0.507,17.292 l -0.298,10.094 6.403,9.121 -6.467,-6.918 -0.504,17.103 0,-73.909 2.404,0 L 0,0 Z"
             style="fill:#170200;fill-opacity:1;fill-rule:nonzero;stroke:none"
             id="path262"
             inkscape:connector-curvature="0" />
        </g>
        <g
           id="g272"
           transform="matrix(1.25,0,0,-1.25,393.22323,805.24414)">
          <path
             d="m 0,0 -0.639,-21.673 -6.64,6.367 6.564,-8.995 -0.285,-9.643 -10.207,9.872 10.102,-13.412 -0.299,-10.227 -12.313,11.985 12.209,-15.449 -1.037,-27.508 2.686,0 0,73.91 L 0,0 Z"
             style="fill:#291401;fill-opacity:1;fill-rule:nonzero;stroke:none"
             id="path274"
             inkscape:connector-curvature="0" />
        </g>
        <g
           id="g276"
           transform="matrix(1.25,0,0,-1.25,395.11536,869.57639)">
          <path
             d="M 0,0 12.447,15.74 -0.104,3.524 -0.4,13.675 9.938,27.394 -0.506,17.292 l -0.299,10.094 6.403,9.121 -6.467,-6.918 -0.504,17.103 0,-73.909 2.404,0 L 0,0 Z"
             style="fill:#170200;fill-opacity:1;fill-rule:nonzero;stroke:none"
             id="path278"
             inkscape:connector-curvature="0" />
        </g>
        <g
           id="g288"
           transform="matrix(1.25,0,0,-1.25,454.55135,804.81926)">
          <path
             d="m 0,0 -0.569,-19.313 -5.918,5.673 5.849,-8.015 -0.254,-8.593 -9.095,8.797 9.002,-11.952 -0.267,-9.113 -10.972,10.68 10.88,-13.767 -0.925,-24.512 2.394,0 0,65.861 L 0,0 Z"
             style="fill:#291401;fill-opacity:1;fill-rule:nonzero;stroke:none"
             id="path290"
             inkscape:connector-curvature="0" />
        </g>
        <g
           id="g292"
           transform="matrix(1.25,0,0,-1.25,456.23723,862.14714)">
          <path
             d="M 0,0 11.092,14.026 -0.093,3.141 l -0.264,9.046 9.212,12.224 -9.306,-9.002 -0.267,8.995 5.706,8.128 -5.762,-6.165 -0.45,15.241 0,-65.861 2.143,0 L 0,0 Z"
             style="fill:#170200;fill-opacity:1;fill-rule:nonzero;stroke:none"
             id="path294"
             inkscape:connector-curvature="0" />
        </g>
        <g
           id="g296"
           transform="matrix(1.25,0,0,-1.25,583.29535,810.14715)">
          <path
             d="m 0,0 -18.304,-79.234 18.321,0 0,79.163 L 0,0 Z"
             style="fill:#858b0b;fill-opacity:1;fill-rule:nonzero;stroke:none"
             id="path298"
             inkscape:connector-curvature="0" />
        </g>
        <g
           id="g300"
           transform="matrix(1.25,0,0,-1.25,583.3161,810.23628)">
          <path
             d="m 0,0 0,-79.163 18.289,0 L 0,0 Z"
             style="fill:#737900;fill-opacity:1;fill-rule:nonzero;stroke:none"
             id="path302"
             inkscape:connector-curvature="0" />
        </g>
        <g
           id="g304"
           transform="matrix(1.25,0,0,-1.25,583.1671,821.02164)">
          <path
             d="m 0,0 -0.548,-18.554 -5.684,5.451 5.619,-7.701 -0.244,-8.255 -8.739,8.452 8.649,-11.483 -0.257,-8.754 -10.54,10.26 10.452,-13.226 -0.889,-23.548 2.3,0 0,63.272 L 0,0 Z"
             style="fill:#291401;fill-opacity:1;fill-rule:nonzero;stroke:none"
             id="path306"
             inkscape:connector-curvature="0" />
        </g>
        <g
           id="g308"
           transform="matrix(1.25,0,0,-1.25,584.78573,876.09489)">
          <path
             d="M 0,0 10.656,13.475 -0.089,3.018 l -0.254,8.689 8.85,11.744 -8.941,-8.648 -0.255,8.642 5.481,7.808 -5.536,-5.923 -0.432,14.643 0,-63.273 2.059,0 L 0,0 Z"
             style="fill:#170200;fill-opacity:1;fill-rule:nonzero;stroke:none"
             id="path310"
             inkscape:connector-curvature="0" />
        </g>
        <g
           id="g312"
           transform="matrix(1.25,0,0,-1.25,517.09285,808.50701)">
          <path
             d="m 0,0 -17.746,-76.82 17.762,0 0,76.751 L 0,0 Z"
             style="fill:#858b0b;fill-opacity:1;fill-rule:nonzero;stroke:none"
             id="path314"
             inkscape:connector-curvature="0" />
        </g>
        <g
           id="g316"
           transform="matrix(1.25,0,0,-1.25,517.11248,808.59364)">
          <path
             d="m 0,0 0,-76.751 17.732,0 L 0,0 Z"
             style="fill:#737900;fill-opacity:1;fill-rule:nonzero;stroke:none"
             id="path318"
             inkscape:connector-curvature="0" />
        </g>
        <g
           id="g320"
           transform="matrix(1.25,0,0,-1.25,516.96835,841.21089)">
          <path
             d="m 0,0 -0.531,-17.988 -5.511,5.285 5.447,-7.467 -0.236,-8.003 -8.473,8.194 8.386,-11.133 -0.249,-8.487 -10.219,9.947 10.133,-12.823 -0.861,-22.831 2.229,0 0,61.345 L 0,0 Z"
             style="fill:#291401;fill-opacity:1;fill-rule:nonzero;stroke:none"
             id="path322"
             inkscape:connector-curvature="0" />
        </g>
        <g
           id="g324"
           transform="matrix(1.25,0,0,-1.25,518.53823,894.60564)">
          <path
             d="M 0,0 10.331,13.063 -0.087,2.926 l -0.246,8.425 8.58,11.385 -8.668,-8.384 -0.248,8.378 5.315,7.571 -5.368,-5.742 -0.419,14.196 0,-61.345 1.996,0 L 0,0 Z"
             style="fill:#170200;fill-opacity:1;fill-rule:nonzero;stroke:none"
             id="path326"
             inkscape:connector-curvature="0" />
        </g>
        <g
           id="g328"
           transform="matrix(1.25,0,0,-1.25,476.75848,874.31264)">
          <path
             d="m 0,0 -21.381,-92.556 21.401,0 0,92.471 L 0,0 Z"
             style="fill:#9ea424;fill-opacity:1;fill-rule:nonzero;stroke:none"
             id="path330"
             inkscape:connector-curvature="0" />
        </g>
        <g
           id="g332"
           transform="matrix(1.25,0,0,-1.25,476.78286,874.41889)">
          <path
             d="m 0,0 0,-92.471 21.362,0 L 0,0 Z"
             style="fill:#8c9212;fill-opacity:1;fill-rule:nonzero;stroke:none"
             id="path334"
             inkscape:connector-curvature="0" />
        </g>
        <g
           id="g336"
           transform="matrix(1.25,0,0,-1.25,476.60711,913.71576)">
          <path
             d="m 0,0 -0.639,-21.673 -6.64,6.367 6.563,-8.995 -0.284,-9.643 -10.208,9.872 10.103,-13.412 -0.299,-10.227 -12.313,11.985 12.208,-15.449 -1.037,-27.508 2.687,0 0,73.91 L 0,0 Z"
             style="fill:#422d1a;fill-opacity:1;fill-rule:nonzero;stroke:none"
             id="path338"
             inkscape:connector-curvature="0" />
        </g>
        <g
           id="g340"
           transform="matrix(1.25,0,0,-1.25,478.4991,978.04801)">
          <path
             d="M 0,0 12.446,15.74 -0.104,3.524 -0.401,13.675 9.938,27.394 -0.507,17.292 l -0.298,10.094 6.403,9.121 -6.467,-6.918 -0.504,17.103 0,-73.909 2.404,0 L 0,0 Z"
             style="fill:#301b08;fill-opacity:1;fill-rule:nonzero;stroke:none"
             id="path342"
             inkscape:connector-curvature="0" />
        </g>
        <g
           id="g344"
           transform="matrix(1.25,0,0,-1.25,557.24185,877.29726)">
          <path
             d="m 0,0 -17.047,-73.794 17.063,0 0,73.727 L 0,0 Z"
             style="fill:#9ea424;fill-opacity:1;fill-rule:nonzero;stroke:none"
             id="path346"
             inkscape:connector-curvature="0" />
        </g>
        <g
           id="g348"
           transform="matrix(1.25,0,0,-1.25,557.26135,877.38151)">
          <path
             d="m 0,0 0,-73.727 17.031,0 L 0,0 Z"
             style="fill:#8c9212;fill-opacity:1;fill-rule:nonzero;stroke:none"
             id="path350"
             inkscape:connector-curvature="0" />
        </g>
        <g
           id="g352"
           transform="matrix(1.25,0,0,-1.25,557.12098,908.71326)">
          <path
             d="m 0,0 -0.51,-17.279 -5.294,5.076 5.234,-7.171 -0.227,-7.689 -8.139,7.871 8.054,-10.694 -0.237,-8.153 -9.818,9.556 9.734,-12.318 -0.827,-21.931 2.142,0 0,58.926 L 0,0 Z"
             style="fill:#422d1a;fill-opacity:1;fill-rule:nonzero;stroke:none"
             id="path354"
             inkscape:connector-curvature="0" />
        </g>
        <g
           id="g356"
           transform="matrix(1.25,0,0,-1.25,558.62973,960.00489)">
          <path
             d="m 0,0 9.923,12.55 -10.006,-9.739 -0.237,8.092 8.243,10.938 -8.327,-8.054 -0.238,8.048 5.105,7.271 -5.156,-5.514 -0.402,13.636 0,-58.927 1.917,0 L 0,0 Z"
             style="fill:#301b08;fill-opacity:1;fill-rule:nonzero;stroke:none"
             id="path358"
             inkscape:connector-curvature="0" />
        </g>
        <g
           id="g360"
           transform="matrix(1.25,0,0,-1.25,429.82848,824.68739)">
          <path
             d="m 0,0 -21.381,-92.556 21.401,0 0,92.471 L 0,0 Z"
             style="fill:#9ea424;fill-opacity:1;fill-rule:nonzero;stroke:none"
             id="path362"
             inkscape:connector-curvature="0" />
        </g>
        <g
           id="g364"
           transform="matrix(1.25,0,0,-1.25,429.85298,824.79364)">
          <path
             d="m 0,0 0,-92.471 21.362,0 L 0,0 Z"
             style="fill:#8c9212;fill-opacity:1;fill-rule:nonzero;stroke:none"
             id="path366"
             inkscape:connector-curvature="0" />
        </g>
        <g
           id="g368"
           transform="matrix(1.25,0,0,-1.25,429.6771,864.09051)">
          <path
             d="m 0,0 -0.639,-21.673 -6.64,6.367 6.563,-8.995 -0.284,-9.643 -10.208,9.872 10.103,-13.412 -0.299,-10.227 -12.313,11.985 12.208,-15.449 -1.037,-27.508 2.687,0 0,73.91 L 0,0 Z"
             style="fill:#422d1a;fill-opacity:1;fill-rule:nonzero;stroke:none"
             id="path370"
             inkscape:connector-curvature="0" />
        </g>
        <g
           id="g372"
           transform="matrix(1.25,0,0,-1.25,431.56923,928.42276)">
          <path
             d="M 0,0 12.446,15.74 -0.104,3.524 -0.401,13.675 9.938,27.394 -0.507,17.292 l -0.298,10.094 6.403,9.121 -6.467,-6.918 -0.504,17.103 0,-73.909 2.404,0 L 0,0 Z"
             style="fill:#301b08;fill-opacity:1;fill-rule:nonzero;stroke:none"
             id="path374"
             inkscape:connector-curvature="0" />
        </g>
        <g
           id="g376"
           transform="matrix(1.25,0,0,-1.25,357.8241,813.65714)">
          <path
             d="m 0,0 -21.381,-92.556 21.401,0 0,92.471 L 0,0 Z"
             style="fill:#9ea424;fill-opacity:1;fill-rule:nonzero;stroke:none"
             id="path378"
             inkscape:connector-curvature="0" />
        </g>
        <g
           id="g380"
           transform="matrix(1.25,0,0,-1.25,357.84848,813.76339)">
          <path
             d="m 0,0 0,-92.471 21.362,0 L 0,0 Z"
             style="fill:#8c9212;fill-opacity:1;fill-rule:nonzero;stroke:none"
             id="path382"
             inkscape:connector-curvature="0" />
        </g>
        <g
           id="g384"
           transform="matrix(1.25,0,0,-1.25,357.67273,853.06026)">
          <path
             d="m 0,0 -0.639,-21.673 -6.64,6.367 6.563,-8.995 -0.284,-9.643 -10.208,9.872 10.103,-13.412 -0.299,-10.227 -12.313,11.985 12.208,-15.449 -1.037,-27.508 2.687,0 0,73.91 L 0,0 Z"
             style="fill:#422d1a;fill-opacity:1;fill-rule:nonzero;stroke:none"
             id="path386"
             inkscape:connector-curvature="0" />
        </g>
        <g
           id="g388"
           transform="matrix(1.25,0,0,-1.25,359.56485,917.39251)">
          <path
             d="M 0,0 12.446,15.74 -0.104,3.524 -0.401,13.675 9.938,27.394 -0.507,17.292 l -0.298,10.094 6.403,9.121 -6.467,-6.918 -0.504,17.103 0,-73.909 2.404,0 L 0,0 Z"
             style="fill:#301b08;fill-opacity:1;fill-rule:nonzero;stroke:none"
             id="path390"
             inkscape:connector-curvature="0" />
        </g>
        <g
           id="g392"
           transform="matrix(1.25,0,0,-1.25,667.49714,934.52751)">
          <path
             d="m 0,0 c -33.449,-6.331 -72.905,-48.157 -87.131,-88.348 l 35.256,-0.298 c 12.006,33.742 29.812,63.75 60.337,83.214 C 4.18,-2.584 4.52,-2.772 0,0"
             style="fill:#318b8f;fill-opacity:1;fill-rule:nonzero;stroke:none"
             id="path394"
             inkscape:connector-curvature="0" />
        </g>
        <g
           id="g396"
           transform="matrix(1.25,0,0,-1.25,517.0941,1040.2758)">
          <path
             d="m 0,0 -476.699,0 c 0,0 106.713,96.788 238.349,96.788 C -106.713,96.788 0,0 0,0"
             style="fill:#c7cb36;fill-opacity:1;fill-rule:nonzero;stroke:none"
             id="path398"
             inkscape:connector-curvature="0" />
        </g>
        <g
           id="g404"
           transform="matrix(1.25,0,0,-1.25,405.33202,975.41696)">
          <path
             d="m 0,0 c -41.165,20.791 -93.888,39.244 -151.364,39.244 -3.537,0 -7.052,-0.083 -10.551,-0.22 -21.591,-15.023 -40.176,-33.321 -55.724,-55.866 -8.708,-13.291 -16.141,-26.798 -22.425,-40.702 l 201.176,0 C -30.582,-34.962 -20.125,-13.161 0,0"
             style="fill:#754c29;fill-opacity:1;fill-rule:nonzero;stroke:none"
             id="path406"
             inkscape:connector-curvature="0" />
        </g>
        <g
           id="g400"
           transform="matrix(1.25,0,0,-1.25,205.10201,924.61615)">
          <path
             d="m 0,0 c -126.739,-4.925 -227.799,-96.568 -227.799,-96.568 l 149.65,0 c 6.284,13.904 13.717,27.411 22.425,40.702 C -40.176,-33.321 -21.591,-15.023 0,0"
             style="fill:#c7cb36;fill-opacity:1;fill-rule:nonzero;stroke:none"
             id="path402"
             inkscape:connector-curvature="0" />
        </g>
        <g
           id="g408"
           transform="matrix(1.25,0,0,-1.25,408.67937,974.58012)">
          <path
             d="m 0,0 c -20.125,-13.161 -30.582,-34.962 -38.888,-57.544 l 125.873,0 c 0,0 -33.871,30.719 -86.985,57.544"
             style="fill:#c7cb36;fill-opacity:1;fill-rule:nonzero;stroke:none"
             id="path410"
             inkscape:connector-curvature="0" />
        </g>
        <g
           clip-path="url(#clipPath416)"
           id="g414"
           transform="matrix(1.25,0,0,-1.25,-114.10454,1275.2072)">
          <g
             id="g420">
            <g
               id="g422" />
            <g
               id="g428">
              <g
                 style="opacity:0.08000183"
                 id="g430"
                 clip-path="url(#clipPath424)">
                <g
                   id="g432"
                   transform="translate(420.2109,248.3242)">
                  <path
                     inkscape:connector-curvature="0"
                     id="path434"
                     style="fill:#ffffff;fill-opacity:1;fill-rule:nonzero;stroke:none"
                     d="m 0,0 c 0,0 -1.537,-0.793 -4.045,-2.551 -1.241,-0.891 -2.729,-1.992 -4.366,-3.337 -1.627,-1.358 -3.416,-2.936 -5.261,-4.762 -1.842,-1.827 -3.778,-3.855 -5.655,-6.143 -0.966,-1.116 -1.873,-2.339 -2.84,-3.542 -0.906,-1.258 -1.877,-2.499 -2.755,-3.845 -0.446,-0.665 -0.895,-1.337 -1.348,-2.012 -0.426,-0.693 -0.856,-1.39 -1.289,-2.092 -0.878,-1.391 -1.679,-2.854 -2.518,-4.302 -0.811,-1.467 -1.57,-2.977 -2.339,-4.483 -0.697,-1.548 -1.472,-3.057 -2.109,-4.634 -1.325,-3.13 -2.456,-6.339 -3.354,-9.56 -0.466,-1.604 -0.907,-3.196 -1.31,-4.781 -0.394,-1.587 -0.884,-3.115 -1.264,-4.657 -0.407,-1.533 -0.909,-3.007 -1.321,-4.482 -0.418,-1.472 -0.875,-2.903 -1.337,-4.296 -0.396,-1.412 -0.826,-2.779 -1.225,-4.11 -0.21,-0.663 -0.438,-1.311 -0.626,-1.958 -0.177,-0.648 -0.369,-1.282 -0.558,-1.904 -0.778,-2.505 -1.492,-4.802 -2.125,-6.838 -0.682,-2.065 -1.277,-3.864 -1.767,-5.347 -0.512,-1.493 -0.941,-2.675 -1.265,-3.48 -0.315,-0.807 -0.509,-1.238 -0.509,-1.238 l -1.098,0.058 c 0,0 -0.13,0.449 -0.326,1.296 -0.204,0.847 -0.459,2.089 -0.749,3.681 -0.306,1.591 -0.533,3.526 -0.691,5.754 -0.093,1.115 -0.167,2.302 -0.216,3.556 -0.005,1.25 -0.011,2.569 0.023,3.943 -0.005,2.758 0.336,5.72 0.697,8.862 0.242,1.56 0.509,3.165 0.832,4.795 0.299,1.635 0.8,3.265 1.262,4.93 0.463,1.665 1.102,3.313 1.764,4.968 0.609,1.673 1.419,3.3 2.19,4.948 0.747,1.655 1.619,3.276 2.461,4.908 0.827,1.637 1.739,3.245 2.625,4.856 0.867,1.621 1.873,3.172 2.798,4.748 0.998,1.538 1.985,3.071 3.021,4.552 1.07,1.46 2.069,2.945 3.214,4.303 0.557,0.686 1.11,1.369 1.66,2.048 0.574,0.657 1.144,1.309 1.709,1.956 2.282,2.563 4.594,4.939 6.941,7.02 2.313,2.113 4.642,3.943 6.827,5.563 2.183,1.623 4.309,2.935 6.192,4.071 1.896,1.122 3.605,1.996 5.029,2.672 2.853,1.336 4.599,1.882 4.599,1.882 L 0,0 Z" />
                </g>
              </g>
            </g>
          </g>
          <g
             id="g436">
            <g
               id="g438" />
            <g
               id="g444">
              <g
                 style="opacity:0.08000183"
                 id="g446"
                 clip-path="url(#clipPath440)">
                <g
                   id="g448"
                   transform="translate(396.0547,258.792)">
                  <path
                     inkscape:connector-curvature="0"
                     id="path450"
                     style="fill:#ffffff;fill-opacity:1;fill-rule:nonzero;stroke:none"
                     d="m 0,0 c 0,0 -1.528,-1.188 -4.003,-3.545 -1.228,-1.183 -2.708,-2.627 -4.333,-4.351 -1.637,-1.712 -3.403,-3.717 -5.271,-5.942 -1.886,-2.208 -3.799,-4.71 -5.765,-7.377 -1.92,-2.707 -3.934,-5.556 -5.816,-8.63 -0.978,-1.51 -1.863,-3.119 -2.816,-4.701 -0.869,-1.637 -1.84,-3.231 -2.696,-4.91 -0.868,-1.672 -1.758,-3.344 -2.552,-5.074 l -1.224,-2.579 -1.14,-2.623 c -1.52,-3.495 -2.771,-7.101 -3.881,-10.671 -1.042,-3.58 -2.067,-7.103 -3.061,-10.512 -0.992,-3.398 -2.059,-6.654 -3.028,-9.775 -0.244,-0.781 -0.488,-1.549 -0.747,-2.304 -0.224,-0.764 -0.444,-1.517 -0.66,-2.256 -0.462,-1.481 -0.908,-2.913 -1.337,-4.286 -0.763,-2.776 -1.664,-5.309 -2.295,-7.598 -0.659,-2.283 -1.385,-4.275 -1.862,-5.94 -0.526,-1.66 -0.965,-2.974 -1.296,-3.87 -0.323,-0.898 -0.52,-1.378 -0.52,-1.378 l -1.099,0.058 c 0,0 -0.126,0.499 -0.315,1.437 -0.197,0.939 -0.44,2.318 -0.716,4.084 -0.302,1.768 -0.44,3.91 -0.591,6.385 -0.189,2.478 -0.104,5.258 -0.012,8.31 0.042,1.527 0.244,3.096 0.375,4.738 0.089,0.819 0.179,1.65 0.27,2.495 0.118,0.84 0.259,1.69 0.405,2.552 0.507,3.464 1.354,7.067 2.474,10.718 0.618,1.809 1.223,3.655 1.992,5.467 0.766,1.813 1.557,3.64 2.433,5.444 1.753,3.609 3.602,7.224 5.566,10.767 l 1.468,2.655 1.548,2.602 c 1.011,1.741 2.115,3.416 3.192,5.084 1.073,1.671 2.228,3.271 3.347,4.858 1.189,1.542 2.302,3.103 3.503,4.56 2.338,2.958 4.735,5.701 7.084,8.218 2.384,2.491 4.674,4.795 6.898,6.807 2.2,2.033 4.309,3.791 6.212,5.3 1.892,1.52 3.607,2.762 5.04,3.751 2.861,1.975 4.62,2.948 4.62,2.948 L 0,0 Z" />
                </g>
              </g>
            </g>
          </g>
          <g
             id="g452">
            <g
               id="g454" />
            <g
               id="g460">
              <g
                 style="opacity:0.08000183"
                 id="g462"
                 clip-path="url(#clipPath456)">
                <g
                   id="g464"
                   transform="translate(373.6152,265.5137)">
                  <path
                     inkscape:connector-curvature="0"
                     id="path466"
                     style="fill:#ffffff;fill-opacity:1;fill-rule:nonzero;stroke:none"
                     d="m 0,0 c 0,0 -0.122,-0.043 -0.356,-0.127 -0.227,-0.088 -0.583,-0.222 -1.03,-0.426 -0.9,-0.398 -2.208,-1.033 -3.786,-1.994 -1.578,-0.96 -3.44,-2.211 -5.467,-3.782 -2.016,-1.591 -4.168,-3.53 -6.399,-5.75 -2.223,-2.234 -4.456,-4.821 -6.692,-7.644 -2.167,-2.885 -4.414,-5.945 -6.459,-9.308 -1.074,-1.642 -2.016,-3.419 -3.048,-5.151 -0.936,-1.799 -1.959,-3.568 -2.882,-5.416 -1.856,-3.69 -3.631,-7.494 -5.209,-11.389 -0.773,-1.954 -1.599,-3.881 -2.24,-5.884 -0.681,-1.983 -1.381,-3.942 -1.951,-5.941 -0.585,-1.991 -1.219,-3.935 -1.768,-5.893 -0.543,-1.958 -1.149,-3.863 -1.752,-5.738 -1.13,-3.78 -2.438,-7.363 -3.605,-10.809 -1.229,-3.424 -2.33,-6.694 -3.437,-9.702 -1.136,-2.998 -2.079,-5.79 -3.056,-8.238 -0.977,-2.46 -1.828,-4.606 -2.53,-6.371 -0.739,-1.767 -1.346,-3.157 -1.791,-4.099 -0.436,-0.945 -0.694,-1.446 -0.694,-1.446 l -1.084,0.187 c 0,0 -0.061,0.557 -0.129,1.596 -0.075,1.041 -0.142,2.56 -0.192,4.497 -0.043,1.935 -0.063,4.285 0.111,6.955 0.168,2.671 0.301,5.703 0.771,8.96 0.196,1.637 0.462,3.329 0.711,5.091 0.274,1.754 0.639,3.554 1.023,5.403 0.695,3.716 1.767,7.565 2.997,11.503 1.351,3.908 2.947,7.878 4.811,11.814 0.873,1.988 1.879,3.946 2.842,5.922 0.955,1.979 1.958,3.95 2.984,5.906 2.005,3.931 4.214,7.768 6.497,11.471 1.143,1.851 2.359,3.644 3.553,5.408 1.281,1.716 2.46,3.458 3.773,5.073 0.645,0.812 1.284,1.618 1.918,2.417 0.646,0.788 1.319,1.545 1.967,2.303 1.271,1.538 2.661,2.928 3.955,4.315 2.699,2.689 5.354,5.115 7.955,7.179 2.607,2.055 5.131,3.756 7.435,5.145 2.319,1.368 4.425,2.405 6.204,3.153 3.549,1.508 5.784,1.878 5.784,1.878 L 0,0 Z" />
                </g>
              </g>
            </g>
          </g>
          <g
             id="g468">
            <g
               id="g470" />
            <g
               id="g476">
              <g
                 style="opacity:0.08000183"
                 id="g478"
                 clip-path="url(#clipPath472)">
                <g
                   id="g480"
                   transform="translate(347.4502,273.0996)">
                  <path
                     inkscape:connector-curvature="0"
                     id="path482"
                     style="fill:#ffffff;fill-opacity:1;fill-rule:nonzero;stroke:none"
                     d="m 0,0 c 0,0 -0.136,-0.049 -0.4,-0.145 -0.254,-0.098 -0.652,-0.251 -1.153,-0.479 -1.007,-0.447 -2.468,-1.163 -4.232,-2.241 -1.761,-1.081 -3.847,-2.476 -6.113,-4.239 -2.252,-1.785 -4.671,-3.943 -7.15,-6.451 -2.461,-2.529 -4.945,-5.437 -7.412,-8.626 -2.384,-3.261 -4.884,-6.696 -7.12,-10.495 -0.288,-0.468 -0.577,-0.937 -0.867,-1.408 -0.272,-0.484 -0.545,-0.97 -0.819,-1.458 -0.548,-0.973 -1.099,-1.953 -1.654,-2.938 -1.03,-2.022 -2.132,-4.028 -3.143,-6.105 -2.012,-4.162 -3.931,-8.45 -5.623,-12.838 -0.825,-2.203 -1.715,-4.374 -2.396,-6.625 -0.721,-2.232 -1.475,-4.434 -2.074,-6.681 -1.301,-4.446 -2.427,-8.866 -3.687,-13.087 -1.156,-4.261 -2.502,-8.312 -3.674,-12.208 -1.223,-3.894 -2.379,-7.576 -3.446,-10.974 -1.141,-3.396 -2.058,-6.555 -3.025,-9.329 -0.962,-2.788 -1.8,-5.219 -2.491,-7.22 -0.708,-2.007 -1.313,-3.582 -1.746,-4.654 -0.427,-1.073 -0.681,-1.644 -0.681,-1.644 l -1.089,0.157 c 0,0 -0.067,0.617 -0.146,1.77 -0.083,1.154 -0.176,2.845 -0.232,4.994 -0.022,1.075 -0.045,2.266 -0.071,3.563 -0.009,1.295 0.054,2.687 0.112,4.177 0.154,2.977 0.256,6.355 0.723,9.993 0.191,1.826 0.452,3.718 0.696,5.685 0.269,1.96 0.642,3.975 1.028,6.044 0.693,4.156 1.798,8.472 3.052,12.898 0.727,2.186 1.455,4.415 2.281,6.638 0.389,1.118 0.819,2.234 1.299,3.338 0.464,1.109 0.93,2.223 1.398,3.341 0.902,2.244 1.963,4.456 2.969,6.69 0.995,2.238 2.063,4.459 3.142,6.67 2.12,4.441 4.475,8.776 6.917,12.964 1.232,2.088 2.527,4.124 3.818,6.117 0.679,0.979 1.354,1.951 2.023,2.916 0.335,0.482 0.668,0.961 1,1.44 0.351,0.466 0.701,0.93 1.049,1.392 0.697,0.922 1.389,1.836 2.073,2.743 0.72,0.878 1.433,1.75 2.138,2.612 1.377,1.744 2.9,3.319 4.312,4.892 2.947,3.054 5.871,5.797 8.722,8.148 2.871,2.33 5.631,4.294 8.17,5.886 2.546,1.583 4.876,2.774 6.842,3.64 3.924,1.749 6.403,2.201 6.403,2.201 L 0,0 Z" />
                </g>
              </g>
            </g>
          </g>
          <g
             id="g484">
            <g
               id="g486" />
            <g
               id="g492">
              <g
                 style="opacity:0.08000183"
                 id="g494"
                 clip-path="url(#clipPath488)">
                <g
                   id="g496"
                   transform="translate(321.1274,278.4639)">
                  <path
                     inkscape:connector-curvature="0"
                     id="path498"
                     style="fill:#ffffff;fill-opacity:1;fill-rule:nonzero;stroke:none"
                     d="m 0,0 c 0,0 -0.144,-0.048 -0.421,-0.142 -0.269,-0.1 -0.689,-0.25 -1.218,-0.484 -1.061,-0.459 -2.604,-1.191 -4.465,-2.31 -1.855,-1.126 -4.042,-2.6 -6.421,-4.455 -2.389,-1.842 -4.907,-4.152 -7.508,-6.795 -2.616,-2.628 -5.215,-5.71 -7.814,-9.067 -2.602,-3.357 -5.132,-7.064 -7.612,-10.976 -2.421,-3.957 -4.786,-8.123 -7.009,-12.459 -0.552,-1.084 -1.107,-2.173 -1.663,-3.265 -0.553,-1.094 -1.048,-2.226 -1.577,-3.339 -0.52,-1.116 -1.042,-2.235 -1.564,-3.355 l -1.456,-3.421 -1.433,-3.425 c -0.446,-1.157 -0.882,-2.317 -1.304,-3.478 -0.426,-1.158 -0.851,-2.314 -1.275,-3.467 -0.386,-1.168 -0.771,-2.333 -1.154,-3.495 -0.767,-2.319 -1.524,-4.615 -2.226,-6.906 -0.68,-2.297 -1.505,-4.507 -2.188,-6.73 -0.716,-2.214 -1.447,-4.38 -2.215,-6.486 -0.748,-2.117 -1.48,-4.187 -2.193,-6.203 -1.49,-4.016 -2.794,-7.862 -4.126,-11.386 -0.668,-1.759 -1.303,-3.453 -1.876,-5.074 -0.604,-1.613 -1.167,-3.148 -1.739,-4.583 -1.142,-2.879 -2.138,-5.389 -2.958,-7.456 -0.839,-2.07 -1.547,-3.691 -2.051,-4.794 -0.498,-1.103 -0.789,-1.688 -0.789,-1.688 l -1.078,0.217 c 0,0 -0.027,0.649 -0.03,1.861 -0.008,1.213 0.009,2.986 0.094,5.238 0.049,1.127 0.103,2.373 0.162,3.731 0.065,1.357 0.224,2.808 0.375,4.365 0.147,1.558 0.347,3.208 0.549,4.952 0.111,0.87 0.224,1.763 0.34,2.677 0.132,0.911 0.301,1.835 0.455,2.785 0.639,3.791 1.358,7.902 2.43,12.182 0.521,2.143 1.006,4.359 1.675,6.58 0.65,2.225 1.367,4.484 2.124,6.77 1.643,4.536 3.492,9.171 5.688,13.754 0.532,1.15 1.067,2.306 1.602,3.464 0.568,1.146 1.137,2.295 1.707,3.446 0.575,1.149 1.138,2.304 1.69,3.464 l 1.782,3.431 1.77,3.432 c 0.628,1.125 1.256,2.249 1.882,3.37 0.635,1.118 1.233,2.248 1.893,3.344 0.662,1.095 1.322,2.186 1.98,3.273 1.281,2.187 2.711,4.275 4.085,6.348 1.401,2.059 2.87,4.041 4.297,5.993 1.51,1.9 2.911,3.818 4.452,5.577 0.757,0.887 1.489,1.777 2.241,2.632 0.775,0.836 1.54,1.663 2.296,2.477 3.071,3.212 6.102,6.123 9.109,8.574 2.991,2.464 5.848,4.578 8.528,6.233 2.662,1.675 5.096,2.95 7.161,3.863 2.063,0.919 3.751,1.482 4.915,1.825 0.582,0.177 1.036,0.279 1.352,0.355 0.312,0.063 0.474,0.096 0.474,0.096 L 0,0 Z" />
                </g>
              </g>
            </g>
          </g>
          <g
             id="g500">
            <g
               id="g502" />
            <g
               id="g508">
              <g
                 style="opacity:0.08000183"
                 id="g510"
                 clip-path="url(#clipPath504)">
                <g
                   id="g512"
                   transform="translate(295.8901,282.4971)">
                  <path
                     inkscape:connector-curvature="0"
                     id="path514"
                     style="fill:#ffffff;fill-opacity:1;fill-rule:nonzero;stroke:none"
                     d="m 0,0 c 0,0 -0.542,-0.281 -1.551,-0.883 -1.006,-0.598 -2.455,-1.532 -4.245,-2.793 -1.791,-1.259 -3.905,-2.877 -6.268,-4.796 -2.368,-1.914 -4.916,-4.224 -7.611,-6.816 -2.698,-2.591 -5.455,-5.565 -8.287,-8.765 -2.765,-3.266 -5.675,-6.701 -8.421,-10.466 -1.422,-1.839 -2.727,-3.823 -4.123,-5.761 -1.302,-2.013 -2.702,-3.986 -3.993,-6.058 -1.283,-2.077 -2.626,-4.134 -3.834,-6.29 -0.619,-1.066 -1.239,-2.136 -1.86,-3.206 -0.606,-1.078 -1.179,-2.18 -1.769,-3.268 l -1.734,-3.282 c -0.55,-1.11 -1.089,-2.223 -1.614,-3.34 -0.521,-1.119 -1.077,-2.214 -1.565,-3.342 -0.487,-1.128 -0.973,-2.251 -1.456,-3.372 -0.477,-1.122 -0.98,-2.222 -1.427,-3.345 -0.436,-1.128 -0.898,-2.237 -1.354,-3.339 -0.456,-1.102 -0.899,-2.2 -1.382,-3.273 -0.439,-1.091 -0.875,-2.175 -1.307,-3.251 -1.844,-4.25 -3.546,-8.398 -5.325,-12.28 -1.625,-3.944 -3.335,-7.621 -4.766,-11.088 -0.732,-1.726 -1.471,-3.373 -2.173,-4.942 -0.673,-1.58 -1.297,-3.086 -1.928,-4.491 -1.268,-2.822 -2.374,-5.282 -3.285,-7.307 -0.915,-2.034 -1.682,-3.628 -2.226,-4.712 -0.538,-1.084 -0.851,-1.659 -0.851,-1.659 l -1.07,0.254 c 0,0 -0.003,0.65 0.039,1.862 0.037,1.214 0.121,2.989 0.29,5.243 0.098,1.123 0.169,2.379 0.318,3.731 0.171,1.345 0.357,2.803 0.587,4.354 0.214,1.557 0.483,3.204 0.765,4.946 0.345,1.723 0.707,3.539 1.125,5.424 0.762,3.794 1.919,7.818 3.154,12.078 1.343,4.223 2.836,8.666 4.809,13.093 0.494,1.106 0.993,2.22 1.496,3.342 0.529,1.112 1.104,2.213 1.674,3.323 1.114,2.232 2.329,4.447 3.62,6.646 1.262,2.211 2.537,4.433 3.91,6.615 0.678,1.095 1.345,2.197 2.002,3.305 l 2.085,3.263 c 0.698,1.087 1.375,2.184 2.088,3.258 0.727,1.065 1.453,2.129 2.178,3.191 1.418,2.141 2.972,4.182 4.461,6.236 1.503,2.045 3.086,4.01 4.633,5.954 1.629,1.886 3.159,3.804 4.803,5.578 0.81,0.896 1.614,1.783 2.409,2.663 0.821,0.857 1.634,1.704 2.438,2.543 1.585,1.697 3.259,3.244 4.844,4.781 3.26,2.991 6.404,5.739 9.446,8.105 3.039,2.367 5.884,4.449 8.505,6.151 2.61,1.716 4.941,3.122 6.926,4.165 3.939,2.127 6.373,3.025 6.373,3.025 L 0,0 Z" />
                </g>
              </g>
            </g>
          </g>
        </g>
      </g>
    </g>
  </g>
</svg>
