<?xml version="1.0" encoding="UTF-8" standalone="no"?>
<!-- Created with Inkscape (http://www.inkscape.org/) -->

<svg
   xmlns:dc="http://purl.org/dc/elements/1.1/"
   xmlns:cc="http://creativecommons.org/ns#"
   xmlns:rdf="http://www.w3.org/1999/02/22-rdf-syntax-ns#"
   xmlns:svg="http://www.w3.org/2000/svg"
   xmlns="http://www.w3.org/2000/svg"
   xmlns:sodipodi="http://sodipodi.sourceforge.net/DTD/sodipodi-0.dtd"
   xmlns:inkscape="http://www.inkscape.org/namespaces/inkscape"
   width="24mm"
   height="24mm"
   viewBox="0 0 85.039325 85.039325"
   id="svg3463"
   version="1.1"
   inkscape:version="0.91 r13725"
   sodipodi:docname="lifebuoy.svg">
  <defs
     id="defs3465" />
  <sodipodi:namedview
     id="base"
     pagecolor="#ffffff"
     bordercolor="#666666"
     borderopacity="1.0"
     inkscape:pageopacity="0.0"
     inkscape:pageshadow="2"
     inkscape:zoom="0.35"
     inkscape:cx="375"
     inkscape:cy="520"
     inkscape:document-units="px"
     inkscape:current-layer="layer1"
     showgrid="false"
     inkscape:window-width="1366"
     inkscape:window-height="706"
     inkscape:window-x="-8"
     inkscape:window-y="-8"
     inkscape:window-maximized="1" />
  <metadata
     id="metadata3468">
    <rdf:RDF>
      <cc:Work
         rdf:about="">
        <dc:format>image/svg+xml</dc:format>
        <dc:type
           rdf:resource="http://purl.org/dc/dcmitype/StillImage" />
        <dc:title></dc:title>
      </cc:Work>
    </rdf:RDF>
  </metadata>
  <g
     inkscape:label="Layer 1"
     inkscape:groupmode="layer"
     id="layer1"
     transform="translate(0,-967.32353)">
    <g
       id="g8587"
       transform="matrix(1.0423972,0,0,1.0423972,-361.26875,92.036141)">
      <path
         id="path6954"
         d="m 408.80057,861.80906 c -13.15918,-13.15919 -34.49219,-13.15919 -47.65625,0 -13.15918,13.19335 -13.19335,34.52636 -0.0341,47.65136 13.15918,13.15917 34.49708,13.15917 47.65625,0 13.15918,-13.19336 13.15918,-34.52636 0.0341,-47.65136 m -37.89063,37.89062 c -7.74413,-7.78321 -7.74413,-20.34669 0,-28.09082 7.78321,-7.74903 20.3418,-7.7832 28.09083,-0.039 7.74902,7.74902 7.74902,20.34667 -0.0341,28.09082 -7.74902,7.74901 -20.30762,7.7832 -28.05665,0.039"
         style="fill:#ff5763;fill-opacity:1;fill-rule:evenodd;stroke:none"
         inkscape:connector-curvature="0" />
      <path
         id="path6956"
         d="m 399.00077,871.56979 c 1.4502,1.4502 2.61718,3.08105 3.53516,4.81445 l 12.2412,-6.44042 c -1.51855,-2.93458 -3.53515,-5.69336 -5.97656,-8.13476 -2.47558,-2.47559 -5.23438,-4.45802 -8.13964,-6.01563 l -6.46974,12.2412 c 1.7334,0.91798 3.35938,2.08496 4.80958,3.53516"
         style="fill:#fdfdfd;fill-opacity:1;fill-rule:evenodd;stroke:none"
         inkscape:connector-curvature="0" />
      <path
         id="path6958"
         d="m 370.90994,899.69968 c -1.45018,-1.4502 -2.65136,-3.08106 -3.53515,-4.81446 l -12.27539,6.44044 c 1.55273,2.93456 3.53516,5.69335 6.01074,8.13476 2.47559,2.47559 5.2002,4.45801 8.13965,6.01562 l 6.43555,-12.27538 c -1.69434,-0.88379 -3.3252,-2.05567 -4.7754,-3.50098"
         style="fill:#fdfdfd;fill-opacity:1;fill-rule:evenodd;stroke:none"
         inkscape:connector-curvature="0" />
      <path
         id="path6960"
         d="m 414.77713,901.29147 -12.23632,-6.44043 c -0.92286,1.7334 -2.12403,3.35938 -3.57422,4.80958 -1.4502,1.45019 -3.042,2.62206 -4.7754,3.54004 l 6.43555,12.24121 c 2.93945,-1.52344 5.66407,-3.54005 8.13965,-5.98145 2.47559,-2.47559 4.45313,-5.23438 6.01074,-8.16895"
         style="fill:#fdfdfd;fill-opacity:1;fill-rule:evenodd;stroke:none"
         inkscape:connector-curvature="0" />
      <path
         id="path6962"
         d="m 370.90994,871.60886 c 1.4502,-1.4502 3.08107,-2.65137 4.81446,-3.54004 l -6.44043,-12.24121 c -2.93457,1.52343 -5.69824,3.54003 -8.13965,5.98145 -2.47558,2.47557 -4.458,5.23437 -6.01074,8.16893 l 12.24121,6.40625 c 0.91797,-1.69921 2.08497,-3.32518 3.53515,-4.77538"
         style="fill:#fdfdfd;fill-opacity:1;fill-rule:evenodd;stroke:none"
         inkscape:connector-curvature="0" />
      <path
         id="path6964"
         d="m 406.64237,911.37448 c -0.5664,0.49316 -1.16699,0.98633 -1.76758,1.41114 0.60059,-0.42481 1.20118,-0.91798 1.76758,-1.41114"
         style="fill:#fa7568;fill-opacity:1;fill-rule:evenodd;stroke:none"
         inkscape:connector-curvature="0" />
      <path
         id="path6966"
         d="m 401.72538,874.96823 c 0.0341,0.10738 0.10737,0.17578 0.1416,0.2832 -0.0341,-0.10737 -0.10737,-0.17577 -0.1416,-0.2832"
         style="fill:#fa7568;fill-opacity:1;fill-rule:evenodd;stroke:none"
         inkscape:connector-curvature="0" />
      <path
         id="path6968"
         d="m 400.13358,898.42526 c -0.0733,0.0684 -0.1416,0.17578 -0.21484,0.24415 0.0733,-0.0684 0.1416,-0.17579 0.21484,-0.24415"
         style="fill:#fa7568;fill-opacity:1;fill-rule:evenodd;stroke:none"
         inkscape:connector-curvature="0" />
      <path
         id="path6970"
         d="m 397.97538,900.58347 c -0.0732,0.0684 -0.1416,0.13671 -0.24903,0.20996 0.10738,-0.0732 0.17578,-0.14161 0.24903,-0.20996"
         style="fill:#fa7568;fill-opacity:1;fill-rule:evenodd;stroke:none"
         inkscape:connector-curvature="0" />
      <path
         id="path6972"
         d="m 399.91874,872.60007 c 0.0733,0.0684 0.1416,0.13671 0.21484,0.24414 -0.0733,-0.10738 -0.1416,-0.17578 -0.21484,-0.24414"
         style="fill:#fa7568;fill-opacity:1;fill-rule:evenodd;stroke:none"
         inkscape:connector-curvature="0" />
      <path
         id="path6974"
         d="m 400.66093,855.79343 c 0.63964,0.35156 1.27441,0.708 1.91406,1.09863 -0.63965,-0.39063 -1.27442,-0.74707 -1.91406,-1.09863"
         style="fill:#fa7568;fill-opacity:1;fill-rule:evenodd;stroke:none"
         inkscape:connector-curvature="0" />
      <path
         id="path6976"
         d="m 403.03397,857.17526 c 0.63477,0.42481 1.24023,0.81055 1.875,1.26953 -0.63477,-0.45898 -1.24023,-0.84472 -1.875,-1.26953"
         style="fill:#fa7568;fill-opacity:1;fill-rule:evenodd;stroke:none"
         inkscape:connector-curvature="0" />
      <path
         id="path6978"
         d="m 397.76053,870.44187 c 0.0733,0.0684 0.1416,0.13671 0.24903,0.20995 -0.10738,-0.0733 -0.17578,-0.1416 -0.24903,-0.20995"
         style="fill:#fa7568;fill-opacity:1;fill-rule:evenodd;stroke:none"
         inkscape:connector-curvature="0" />
      <path
         id="path6980"
         d="m 404.90897,858.44479 c 0.60059,0.46387 1.167,0.92285 1.76758,1.41602 -0.60058,-0.49317 -1.167,-0.95215 -1.76758,-1.41602"
         style="fill:#fa7568;fill-opacity:1;fill-rule:evenodd;stroke:none"
         inkscape:connector-curvature="0" />
      <path
         id="path6982"
         d="m 412.12577,905.53463 c -0.45899,0.63478 -0.91797,1.20118 -1.41602,1.76759 0.49805,-0.56641 0.95703,-1.13281 1.41602,-1.76759"
         style="fill:#fa7568;fill-opacity:1;fill-rule:evenodd;stroke:none"
         inkscape:connector-curvature="0" />
      <path
         id="path6984"
         d="m 401.86698,896.01803 c -0.0341,0.0733 -0.10737,0.17579 -0.17579,0.24903 0.0684,-0.0733 0.14161,-0.17578 0.17579,-0.24903"
         style="fill:#fa7568;fill-opacity:1;fill-rule:evenodd;stroke:none"
         inkscape:connector-curvature="0" />
      <path
         id="path6986"
         d="m 414.77713,901.32566 c -0.35156,0.63476 -0.74219,1.27441 -1.13281,1.90917 0.39062,-0.63476 0.78125,-1.27441 1.13281,-1.90917"
         style="fill:#fa7568;fill-opacity:1;fill-rule:evenodd;stroke:none"
         inkscape:connector-curvature="0" />
      <path
         id="path6988"
         d="m 410.70976,863.93307 c 0.49316,0.56641 0.99121,1.167 1.41601,1.76759 -0.4248,-0.60059 -0.92285,-1.20118 -1.41601,-1.76759"
         style="fill:#fa7568;fill-opacity:1;fill-rule:evenodd;stroke:none"
         inkscape:connector-curvature="0" />
      <path
         id="path6990"
         d="m 395.60233,902.38522 c -0.1025,0.0733 -0.20996,0.10737 -0.2832,0.17579 0.0733,-0.0684 0.18066,-0.1025 0.2832,-0.17579"
         style="fill:#fa7568;fill-opacity:1;fill-rule:evenodd;stroke:none"
         inkscape:connector-curvature="0" />
      <path
         id="path6992"
         d="m 413.68338,868.00046 c 0.39063,0.63476 0.77638,1.27441 1.09375,1.90917 -0.31737,-0.63476 -0.70312,-1.27441 -1.09375,-1.90917"
         style="fill:#fa7568;fill-opacity:1;fill-rule:evenodd;stroke:none"
         inkscape:connector-curvature="0" />
      <path
         id="path6994"
         d="m 410.35819,863.46921 c -0.49805,-0.5664 -1.02539,-1.12793 -1.55762,-1.66015 -0.5664,-0.56642 -1.13281,-1.09864 -1.69922,-1.5918 0.56641,0.49316 1.13282,1.02538 1.69922,1.5918 0.53223,0.53222 1.05957,1.09375 1.55762,1.66015"
         style="fill:#fa7568;fill-opacity:1;fill-rule:evenodd;stroke:none"
         inkscape:connector-curvature="0" />
      <path
         id="path6996"
         d="m 395.35819,868.70847 c 0.0684,0.0341 0.17578,0.1025 0.24903,0.17577 -0.0732,-0.0733 -0.18066,-0.1416 -0.24903,-0.17577"
         style="fill:#fa7568;fill-opacity:1;fill-rule:evenodd;stroke:none"
         inkscape:connector-curvature="0" />
      <path
         id="path6998"
         d="m 412.12577,865.70066 c 0.45898,0.60058 0.88378,1.20116 1.27441,1.84081 -0.39063,-0.63965 -0.81543,-1.24023 -1.27441,-1.84081"
         style="fill:#fa7568;fill-opacity:1;fill-rule:evenodd;stroke:none"
         inkscape:connector-curvature="0" />
      <path
         id="path7000"
         d="m 408.76639,909.42624 c 0.52735,-0.53223 1.05958,-1.09863 1.55274,-1.66016 -0.49316,0.56153 -1.02539,1.12793 -1.55274,1.66016"
         style="fill:#fa7568;fill-opacity:1;fill-rule:evenodd;stroke:none"
         inkscape:connector-curvature="0" />
      <path
         id="path7002"
         d="m 402.53593,914.34323 c -0.63477,0.39063 -1.26954,0.78125 -1.90919,1.09864 0.63965,-0.31739 1.27441,-0.70801 1.90919,-1.09864"
         style="fill:#fa7568;fill-opacity:1;fill-rule:evenodd;stroke:none"
         inkscape:connector-curvature="0" />
      <path
         id="path7004"
         d="m 404.87479,912.78562 c -0.60059,0.45897 -1.24023,0.88866 -1.875,1.27441 0.63477,-0.38575 1.27441,-0.81544 1.875,-1.27441"
         style="fill:#fa7568;fill-opacity:1;fill-rule:evenodd;stroke:none"
         inkscape:connector-curvature="0" />
      <path
         id="path7006"
         d="m 413.36601,903.69382 c -0.39063,0.63965 -0.81544,1.24024 -1.24024,1.84081 0.4248,-0.60057 0.84961,-1.20116 1.24024,-1.84081"
         style="fill:#fa7568;fill-opacity:1;fill-rule:evenodd;stroke:none"
         inkscape:connector-curvature="0" />
      <path
         id="path7008"
         d="m 408.76639,909.46042 c -0.5664,0.53222 -1.13281,1.06445 -1.69921,1.55761 0.5664,-0.49316 1.13281,-1.02539 1.69921,-1.55761"
         style="fill:#fa7568;fill-opacity:1;fill-rule:evenodd;stroke:none"
         inkscape:connector-curvature="0" />
    </g>
  </g>
</svg>
