<?xml version="1.0" encoding="UTF-8" standalone="no"?>
<!-- Created with Inkscape (http://www.inkscape.org/) -->

<svg
   xmlns:dc="http://purl.org/dc/elements/1.1/"
   xmlns:cc="http://creativecommons.org/ns#"
   xmlns:rdf="http://www.w3.org/1999/02/22-rdf-syntax-ns#"
   xmlns:svg="http://www.w3.org/2000/svg"
   xmlns="http://www.w3.org/2000/svg"
   xmlns:sodipodi="http://sodipodi.sourceforge.net/DTD/sodipodi-0.dtd"
   xmlns:inkscape="http://www.inkscape.org/namespaces/inkscape"
   width="29mm"
   height="35mm"
   viewBox="0 0 102.75585 124.01568"
   id="svg4610"
   version="1.1"
   inkscape:version="0.91 r13725"
   sodipodi:docname="pair.svg">
  <defs
     id="defs4612" />
  <sodipodi:namedview
     id="base"
     pagecolor="#ffffff"
     bordercolor="#666666"
     borderopacity="1.0"
     inkscape:pageopacity="0.0"
     inkscape:pageshadow="2"
     inkscape:zoom="0.35"
     inkscape:cx="375"
     inkscape:cy="520"
     inkscape:document-units="px"
     inkscape:current-layer="layer1"
     showgrid="false"
     inkscape:window-width="1366"
     inkscape:window-height="706"
     inkscape:window-x="-8"
     inkscape:window-y="-8"
     inkscape:window-maximized="1" />
  <metadata
     id="metadata4615">
    <rdf:RDF>
      <cc:Work
         rdf:about="">
        <dc:format>image/svg+xml</dc:format>
        <dc:type
           rdf:resource="http://purl.org/dc/dcmitype/StillImage" />
        <dc:title></dc:title>
      </cc:Work>
    </rdf:RDF>
  </metadata>
  <g
     inkscape:label="Layer 1"
     inkscape:groupmode="layer"
     id="layer1"
     transform="translate(0,-928.34671)">
    <g
       id="g4692"
       transform="matrix(0.30013145,0,0,0.30013145,-113.96593,801.42643)">
      <path
         id="path287"
         d="m 457.11951,471.48939 c -80.85937,0 -61.37695,107.18261 0,107.18261 61.38184,0 80.86427,-107.18261 0,-107.18261"
         style="fill:#a87563;fill-opacity:1;fill-rule:evenodd;stroke:none"
         inkscape:connector-curvature="0" />
      <path
         id="path289"
         d="m 431.31385,798.35463 c -5.64454,8.40331 -13.15919,13.2373 -15.03906,19.30175 -3.03223,9.79005 7.88086,9.79981 14.30175,7.95411 6.02051,-1.72364 9.3213,-5.76661 12.79786,-6.76759 8.96973,-2.58789 9.19921,-7.89062 5.57129,-20.48827 -3.62794,-12.59278 -13.09083,-7.86133 -17.63184,0"
         style="fill:#e3667d;fill-opacity:1;fill-rule:evenodd;stroke:none"
         inkscape:connector-curvature="0" />
      <path
         id="path291"
         d="m 482.52966,798.35463 c 5.64454,8.40331 13.15919,13.2373 15.03419,19.30175 3.09082,9.97558 -8.41309,9.67286 -14.6582,7.82227 -5.92286,-1.74805 -8.99415,-5.63965 -12.43652,-6.63575 -8.96973,-2.58789 -9.2041,-7.89062 -5.57129,-20.48827 3.62792,-12.59278 13.09081,-7.86133 17.63182,0"
         style="fill:#e3667d;fill-opacity:1;fill-rule:evenodd;stroke:none"
         inkscape:connector-curvature="0" />
      <path
         id="path293"
         d="m 425.391,689.82435 63.46191,0 0,115.55176 -26.35742,0 0,-83.91602 c 0,-7.19726 -10.74219,-7.24121 -10.74219,0 l 0,83.91602 -26.3623,0 z m 0,0"
         style="fill:#8599b3;fill-opacity:1;fill-rule:evenodd;stroke:none"
         inkscape:connector-curvature="0" />
      <path
         id="path295"
         d="m 440.24451,613.13001 -15.43945,48.58887 c -1.9629,6.19141 -8.6377,9.64843 -14.8291,7.68067 -6.18652,-1.96777 -9.64356,-8.64259 -7.67578,-14.82911 l 15.43457,-48.59375 c 4.48241,-14.1162 26.76269,-6.23535 22.50976,7.15332"
         style="fill:#fad9bd;fill-opacity:1;fill-rule:evenodd;stroke:none"
         inkscape:connector-curvature="0" />
      <path
         id="path297"
         d="m 417.59803,698.89661 c 1.57226,0.19044 2.69043,1.63087 2.5,3.19825 l -0.85449,6.91407 c -0.19531,1.56737 -1.63086,2.69042 -3.19825,2.5 -1.56738,-0.19532 -2.69043,-1.63575 -2.49511,-3.20313 l 0.84961,-6.91406 c 0.19531,-1.56739 1.63086,-2.69044 3.19824,-2.49513"
         style="fill:#fad9bd;fill-opacity:1;fill-rule:evenodd;stroke:none"
         inkscape:connector-curvature="0" />
      <path
         id="path299"
         d="m 420.09803,702.09486 0.41503,-3.83301 -22.96875,-2.69531 -0.41503,3.83789 c -1.85059,16.94825 20.8545,22.29981 22.96875,2.69043"
         style="fill:#fad9bd;fill-opacity:1;fill-rule:evenodd;stroke:none"
         inkscape:connector-curvature="0" />
      <path
         id="path301"
         d="m 420.51306,698.26185 4.45313,-36.63574 c 0.78125,-6.44043 -4.01855,-12.30957 -10.47363,-13.00293 -6.45996,-0.69824 -12.31446,4.01367 -13.0127,10.46875 l -3.93555,36.47461 z m 0,0"
         style="fill:#fad9bd;fill-opacity:1;fill-rule:evenodd;stroke:none"
         inkscape:connector-curvature="0" />
      <path
         id="path303"
         d="m 474.24841,613.13001 15.43947,48.58887 c 1.96777,6.19141 8.63769,9.64843 14.8291,7.68067 6.18652,-1.96777 9.64355,-8.64259 7.67577,-14.82911 l -15.43456,-48.59375 c -4.48243,-14.1162 -26.75781,-6.23535 -22.50978,7.15332"
         style="fill:#fad9bd;fill-opacity:1;fill-rule:evenodd;stroke:none"
         inkscape:connector-curvature="0" />
      <path
         id="path305"
         d="m 496.89003,698.89661 c -1.56739,0.19044 -2.68555,1.63087 -2.49513,3.19825 l 0.8545,6.91407 c 0.19531,1.56737 1.63085,2.69042 3.19824,2.5 1.56739,-0.19532 2.69043,-1.63575 2.5,-3.20313 l -0.85449,-6.91406 c -0.19531,-1.56739 -1.63086,-2.69044 -3.20312,-2.49513"
         style="fill:#fad9bd;fill-opacity:1;fill-rule:evenodd;stroke:none"
         inkscape:connector-curvature="0" />
      <path
         id="path307"
         d="m 494.3949,702.09486 -0.41015,-3.83301 22.96387,-2.69531 0.41503,3.83789 c 1.85059,16.94825 -20.84961,22.29981 -22.96875,2.69043"
         style="fill:#fad9bd;fill-opacity:1;fill-rule:evenodd;stroke:none"
         inkscape:connector-curvature="0" />
      <path
         id="path309"
         d="m 493.98475,698.26185 -4.45312,-36.63574 c -0.78614,-6.44043 4.01366,-12.30957 10.46875,-13.00293 6.45996,-0.69824 12.31445,4.01367 13.01269,10.47363 l 3.93555,36.46973 z m 0,0"
         style="fill:#fad9bd;fill-opacity:1;fill-rule:evenodd;stroke:none"
         inkscape:connector-curvature="0" />
      <path
         id="path311"
         d="m 425.39588,598.45228 63.45703,0 0,100.04883 -63.45703,0 z m 0,0"
         style="fill:#cfe1eb;fill-opacity:1;fill-rule:evenodd;stroke:none"
         inkscape:connector-curvature="0" />
      <path
         id="path313"
         d="m 457.11951,551.28432 c 7.88574,0 14.33105,6.45018 14.33105,14.33104 l 0,32.83204 c 0,7.88574 -6.44531,14.33105 -14.33105,14.33105 -7.88086,0 -14.33105,-6.44531 -14.33105,-14.33105 l 0,-32.83204 c 0,-7.88086 6.45019,-14.33104 14.33105,-14.33104"
         style="fill:#fad9bd;fill-opacity:1;fill-rule:evenodd;stroke:none"
         inkscape:connector-curvature="0" />
      <path
         id="path315"
         d="m 471.45056,587.7638 c 0,12.30958 -28.6621,12.30958 -28.6621,0 0,-12.30956 28.6621,-12.30956 28.6621,0"
         style="fill:#deb899;fill-opacity:1;fill-rule:evenodd;stroke:none"
         inkscape:connector-curvature="0" />
      <path
         id="path317"
         d="m 457.11951,474.8976 c -80.74707,0 -61.28906,117.20214 0,117.20214 61.29396,0 80.75196,-117.20214 0,-117.20214"
         style="fill:#fad9bd;fill-opacity:1;fill-rule:evenodd;stroke:none"
         inkscape:connector-curvature="0" />
      <path
         id="path319"
         d="m 401.02088,526.50404 c 4.08203,-1.04004 9.03321,4.57031 11.06933,12.5293 2.03125,7.96386 0.3711,15.26366 -3.70605,16.30371 -4.07715,1.04004 -9.0332,-4.57031 -11.06445,-12.5293 -2.03613,-7.96387 -0.37598,-15.26367 3.70117,-16.30371"
         style="fill:#fad9bd;fill-opacity:1;fill-rule:evenodd;stroke:none"
         inkscape:connector-curvature="0" />
      <path
         id="path321"
         d="m 513.26698,526.50404 c -4.08204,-1.04004 -9.03809,4.57031 -11.06934,12.5293 -2.03125,7.96386 -0.37597,15.26366 3.70118,16.30371 4.07715,1.04004 9.03808,-4.57031 11.06933,-12.5293 2.03125,-7.96387 0.37598,-15.26367 -3.70117,-16.30371"
         style="fill:#fad9bd;fill-opacity:1;fill-rule:evenodd;stroke:none"
         inkscape:connector-curvature="0" />
      <path
         id="path323"
         d="m 473.87244,544.80482 c 2.14356,0 3.88672,-3.20313 3.88672,-7.1289 0,-3.92579 -1.74316,-7.12403 -3.88672,-7.12403 -2.14355,0 -3.88671,3.19824 -3.88671,7.12403 0,3.92577 1.74316,7.1289 3.88671,7.1289"
         style="fill:#3f4f54;fill-opacity:1;fill-rule:evenodd;stroke:none"
         inkscape:connector-curvature="0" />
      <path
         id="path325"
         d="m 440.37146,544.80482 c 2.13868,0 3.88673,-3.20313 3.88673,-7.1289 0,-3.92579 -1.74805,-7.12403 -3.88673,-7.12403 -2.14355,0 -3.8916,3.19824 -3.8916,7.12403 0,3.92577 1.74805,7.1289 3.8916,7.1289"
         style="fill:#3f4f54;fill-opacity:1;fill-rule:evenodd;stroke:none"
         inkscape:connector-curvature="0" />
      <path
         id="path327"
         d="m 464.9906,552.86634 c -3.02245,7.69531 -12.71972,7.5586 -15.7373,0 4.41895,4.2041 11.07423,4.39941 15.7373,0"
         style="fill:#deb899;fill-opacity:1;fill-rule:evenodd;stroke:none"
         inkscape:connector-curvature="0" />
      <path
         id="path329"
         d="m 437.96913,636.36244 c 2.17772,-3.51563 5.03417,-6.40138 8.34472,-8.39356 3.24219,-1.95313 6.91406,-3.05664 10.80566,-3.05664 3.89649,0 7.56348,1.10351 10.81055,3.05664 3.30567,1.99218 6.1621,4.87793 8.34473,8.39356 l -4.07226,2.50976 c -1.76759,-2.85156 -4.08204,-5.19042 -6.74805,-6.79687 -2.50977,-1.50879 -5.33692,-2.3584 -8.33497,-2.3584 -2.99316,0 -5.8252,0.84961 -8.33496,2.3584 -2.66601,1.60645 -4.97559,3.94531 -6.74316,6.79687 z m 38.30566,32.60742 c -2.18263,3.51074 -5.03906,6.40137 -8.34473,8.39355 -3.24707,1.94824 -6.91406,3.05177 -10.81055,3.05177 -3.8916,0 -7.56347,-1.10353 -10.80566,-3.05177 -3.31055,-1.99218 -6.167,-4.88281 -8.34472,-8.39355 l 4.07226,-2.51465 c 1.76757,2.85157 4.07715,5.19043 6.74316,6.80175 2.50976,1.50879 5.3418,2.3584 8.33496,2.3584 2.99805,0 5.8252,-0.84961 8.33497,-2.3584 2.66601,-1.61132 4.98046,-3.95018 6.74805,-6.80175 z m 0,0"
         style="fill:#99b3c2;fill-opacity:1;fill-rule:nonzero;stroke:none"
         inkscape:connector-curvature="0" />
      <path
         id="path331"
         d="m 439.04334,646.9972 36.15722,0 0,-4.42871 -36.15722,0 z m 0,0"
         style="fill:#99b3c2;fill-opacity:1;fill-rule:evenodd;stroke:none"
         inkscape:connector-curvature="0" />
      <path
         id="path333"
         d="m 439.04334,656.09876 36.15722,0 0,-6.87011 -36.15722,0 z m 0,0"
         style="fill:#99b3c2;fill-opacity:1;fill-rule:evenodd;stroke:none"
         inkscape:connector-curvature="0" />
      <path
         id="path335"
         d="m 439.04334,662.75893 36.15722,0 0,-4.42872 -36.15722,0 z m 0,0"
         style="fill:#99b3c2;fill-opacity:1;fill-rule:evenodd;stroke:none"
         inkscape:connector-curvature="0" />
      <path
         id="path337"
         d="m 480.38611,561.94349 c -8.45702,5.40039 -28.47167,8.77441 -39.92676,6.55762 13.60353,-1.28906 27.00196,-3.2129 39.92676,-6.55762"
         style="fill:#bd946e;fill-opacity:1;fill-rule:evenodd;stroke:none"
         inkscape:connector-curvature="0" />
      <path
         id="path339"
         d="m 468.67225,568.6183 c -3.02246,5.07813 -14.55566,6.13281 -18.71094,1.83594 5.61035,1.66504 13.53515,0.89844 18.71094,-1.83594"
         style="fill:#deb899;fill-opacity:1;fill-rule:evenodd;stroke:none"
         inkscape:connector-curvature="0" />
      <path
         id="path341"
         d="m 412.49549,541.82143 c 0.88379,8.57421 -1.20118,6.14745 -4.27734,-0.57618 -3.08106,-6.72363 -5.32715,-13.43262 -4.78516,-20.07325 5.19042,-64.11132 100.51758,-64.89745 107.33399,0 0.69824,6.62599 -1.7041,13.34962 -4.78516,20.07325 -3.07617,6.72363 -5.16113,9.15039 -4.27734,0.57618 1.0791,-10.41016 -0.52735,-25.39063 -6.03517,-34.20899 -9.74608,-15.60059 -22.46093,-6.54785 -39.70215,-6.54785 -17.2412,0 -25.32226,-7.03614 -36.57713,7.36328 -6.82618,8.73047 -8.042,22.28027 -6.89454,33.39356"
         style="fill:#c27814;fill-opacity:1;fill-rule:evenodd;stroke:none"
         inkscape:connector-curvature="0" />
      <path
         id="path343"
         d="m 403.53065,520.04408 c -3.13965,-38.35937 16.48438,-60.64941 18.95508,-48.79883 2.47558,11.85059 7.23143,3.81348 9.65331,-4.3457 2.417,-8.15918 4.4336,-10.78125 8.48145,-1.65527 4.04297,9.12597 7.33886,5.19043 11.21094,-3.51563 3.87207,-8.72558 6.7041,-8.72558 10.58105,0 3.86718,8.70606 6.33301,13.26172 10.38086,4.13574 4.04785,-9.12597 6.68457,-7.3291 9.10156,0.8252 2.417,8.15918 7.07031,17.04101 9.54101,5.19531 2.47559,-11.85058 22.41212,9.79981 19.27247,48.15918 -13.88184,-40.23926 -93.29102,-40.23926 -107.17773,0"
         style="fill:#c27814;fill-opacity:1;fill-rule:evenodd;stroke:none"
         inkscape:connector-curvature="0" />
      <path
         id="path345"
         d="m 467.07556,525.21498 c 2.78809,-3.64258 9.30177,-3.73535 13.33497,-1.33301 2.02148,1.20606 0.76172,1.73828 -0.54688,1.1084 -4.24316,-2.0459 -8.4668,-0.83984 -11.46484,1.89941 -1.59668,1.4502 -2.86621,0.34669 -1.32325,-1.6748"
         style="fill:#c27814;fill-opacity:1;fill-rule:evenodd;stroke:none"
         inkscape:connector-curvature="0" />
      <path
         id="path347"
         d="m 445.59119,525.21498 c -2.78809,-3.64258 -9.29688,-3.73535 -13.33008,-1.33301 -2.02148,1.20606 -0.7666,1.73828 0.54688,1.1084 4.23829,-2.0459 8.4668,-0.83984 11.46485,1.89941 1.59179,1.4502 2.86132,0.34669 1.31835,-1.6748"
         style="fill:#c27814;fill-opacity:1;fill-rule:evenodd;stroke:none"
         inkscape:connector-curvature="0" />
      <path
         id="path349"
         d="m 417.01698,815.70814 c -0.33204,0.63965 -0.60059,1.28417 -0.80567,1.94824 -3.042,9.82422 7.59765,9.80957 13.95508,8.28125 6.66015,-1.60157 9.4873,-6.04004 13.14452,-7.09473 4.80958,-1.38671 7.1045,-3.55469 7.63673,-7.21191 -5.10254,3.96972 -12.81739,7.22169 -21.00586,9.91211 -3.48144,-3.85742 -8.51563,-5.77636 -12.9248,-5.83496"
         style="fill:#ff94a6;fill-opacity:1;fill-rule:evenodd;stroke:none"
         inkscape:connector-curvature="0" />
      <path
         id="path351"
         d="m 420.54236,811.56751 c -0.33691,0.24414 -0.80566,0.1709 -1.0498,-0.16113 -0.23926,-0.33692 -0.1709,-0.80567 0.16602,-1.0498 0.58593,-0.4248 1.49413,-0.80567 2.60253,-1.09864 l -0.0195,0.005 c -0.21485,0.0195 -0.42481,-0.0586 -0.5713,-0.19531 -0.0732,-0.0489 -0.14647,-0.11225 -0.20507,-0.19043 -0.24414,-0.33204 -0.1709,-0.80079 0.16114,-1.04492 0.72753,-0.53223 2.07518,-1.09375 3.70117,-1.52833 -0.11712,0.005 -0.23437,0.0146 -0.35645,0.0244 -0.41016,0.039 -0.77149,-0.26367 -0.81055,-0.67383 -0.039,-0.41504 0.26368,-0.77636 0.67871,-0.81542 1.17188,-0.10738 2.19727,0.0146 3.10548,0.28808 l 0,2.1582 c -1.11329,0.1709 -2.16798,0.41504 -3.06153,0.69337 0.63477,0.1709 1.2207,0.41991 1.75293,0.72753 0.43457,-0.005 0.86914,0.005 1.3086,0.0292 l 0,3.05664 c -0.3125,-0.37597 -0.65919,-0.73731 -1.03516,-1.06934 -0.21484,-0.18066 -0.44922,-0.35645 -0.68848,-0.51757 -2.46582,0.0781 -4.69726,0.63965 -5.67871,1.3623 m 7.40235,-6.44043 c 0.43945,0.13672 0.8496,0.30762 1.23535,0.50782 l 0.11225,-0.01 c 2.45605,-0.19532 4.99024,0.039 6.85059,1.06446 0.36132,0.20019 0.49316,0.65429 0.29785,1.01562 -0.2002,0.36133 -0.65918,0.49804 -1.02052,0.29785 -1.1621,-0.64453 -2.69531,-0.91308 -4.30663,-0.94238 1.01562,1.00097 1.74316,2.16797 2.31933,3.14453 0.26855,0.22949 0.35157,0.62012 0.17579,0.9375 -0.2002,0.36133 -0.6543,0.49804 -1.01562,0.29785 -1.14259,-0.62988 -2.53419,-0.99121 -3.97462,-1.14746 0.95703,1.02051 1.65039,2.17285 2.19727,3.10546 0.20996,0.36134 0.083,0.81544 -0.27344,1.0254 -0.35645,0.20508 -0.81543,0.083 -1.02051,-0.27343 -0.41504,-0.71778 -0.92773,-1.56739 -1.57714,-2.3584 l 0,-3.05664 c 1.04004,0.0635 2.08495,0.21972 3.0664,0.48339 -0.40039,-0.53223 -0.85938,-1.0498 -1.3916,-1.49414 -0.23926,-0.20019 -0.49805,-0.38574 -0.77149,-0.55664 -0.30274,0.0341 -0.60546,0.0733 -0.90331,0.11713 z m 0,0"
         style="fill:#ff94a6;fill-opacity:1;fill-rule:nonzero;stroke:none"
         inkscape:connector-curvature="0" />
      <path
         id="path353"
         d="m 496.78748,815.70814 c 0.32715,0.63965 0.60059,1.28417 0.80567,1.94824 3.04199,9.82422 -7.36329,9.69238 -13.72071,8.16406 -6.66015,-1.60156 -9.72656,-5.92285 -13.3789,-6.97754 -4.80958,-1.38671 -7.10938,-3.55469 -7.6416,-7.21191 5.10254,3.96972 12.82226,7.22169 21.00585,9.91211 3.48145,-3.85742 8.52051,-5.77636 12.92969,-5.83496"
         style="fill:#ff94a6;fill-opacity:1;fill-rule:evenodd;stroke:none"
         inkscape:connector-curvature="0" />
      <path
         id="path355"
         d="m 485.85975,805.12709 c -0.44434,0.13184 -0.8545,0.30761 -1.23535,0.50781 l -0.11237,-0.01 c -2.46094,-0.19531 -4.99024,0.039 -6.85547,1.06446 -0.36133,0.20019 -0.48828,0.65429 -0.29297,1.01563 0.2002,0.36132 0.6543,0.49804 1.02051,0.29785 1.16211,-0.64454 2.69531,-0.91798 4.30664,-0.94239 -1.02051,1.00098 -1.74805,2.16798 -2.31934,3.14454 -0.26855,0.2246 -0.35156,0.62011 -0.17577,0.9375 0.20018,0.36132 0.65428,0.49804 1.01562,0.29785 1.13769,-0.62989 2.53418,-0.99121 3.9746,-1.14746 -0.96191,1.02051 -1.65526,2.17285 -2.20214,3.10546 -0.20508,0.35645 -0.083,0.81544 0.27832,1.0254 0.35156,0.20507 0.81055,0.083 1.02051,-0.27344 0.41504,-0.71777 0.92285,-1.56739 1.57715,-2.3584 l 0,-3.05664 c -1.04004,0.0635 -2.08496,0.21973 -3.06153,0.48339 0.3955,-0.53222 0.85449,-1.0498 1.38672,-1.49414 0.23926,-0.20018 0.49316,-0.38573 0.7666,-0.55175 0.30762,0.0293 0.61036,0.0684 0.90821,0.11225 z m 7.40234,6.44042 c 0.33204,0.24414 0.80079,0.1709 1.04492,-0.16113 0.24414,-0.33203 0.1709,-0.80078 -0.16113,-1.04492 -0.58594,-0.42968 -1.49903,-0.81543 -2.60254,-1.09863 l 0.0195,0 c 0.21484,0.0195 0.41991,-0.0586 0.57129,-0.19532 0.0732,-0.0489 0.14648,-0.11225 0.20507,-0.19042 0.24414,-0.33204 0.16601,-0.80079 -0.16114,-1.04493 -0.72753,-0.53222 -2.08007,-1.09375 -3.70605,-1.52832 0.11713,0.005 0.23438,0.0146 0.36133,0.0244 0.40527,0.039 0.77149,-0.26366 0.81055,-0.67382 0.039,-0.41015 -0.26855,-0.77636 -0.67871,-0.81543 -1.17188,-0.10737 -2.20215,0.0146 -3.10547,0.28809 l 0,2.1582 c 1.11328,0.16601 2.16309,0.41504 3.06153,0.69336 -0.63965,0.1709 -1.22071,0.41992 -1.75294,0.72265 -0.43456,0 -0.87402,0.01 -1.30859,0.0342 l 0,3.05664 c 0.3125,-0.37597 0.65429,-0.74219 1.03515,-1.06445 0.21485,-0.18555 0.44434,-0.36134 0.68848,-0.52246 2.46582,0.0781 4.69727,0.63965 5.67871,1.3623"
         style="fill:#ff94a6;fill-opacity:1;fill-rule:nonzero;stroke:none"
         inkscape:connector-curvature="0" />
    </g>
    <g
       id="g4840"
       transform="matrix(0.28838444,0,0,0.28838444,-109.84165,832.03882)">
      <path
         id="path501"
         d="m 624.286,393.67664 c -90.4248,0 -61.18652,155.95703 0.19043,155.95703 61.38184,0 90.23437,-155.95703 -0.19043,-155.95703"
         style="fill:#e6972b;fill-opacity:1;fill-rule:evenodd;stroke:none"
         inkscape:connector-curvature="0" />
      <path
         id="path503"
         d="m 605.92663,719.29676 c -4.21387,6.10351 -9.83399,9.61425 -11.23535,14.01855 -0.79102,2.49024 -0.20508,5.63965 2.32421,5.95215 10.88867,1.34765 14.05274,-3.99902 17.92969,-5.08789 6.69922,-1.87988 6.875,-5.73242 4.16016,-14.88281 -2.70996,-9.1504 -9.78516,-5.70801 -13.17871,0"
         style="fill:#fad9bd;fill-opacity:1;fill-rule:evenodd;stroke:none"
         inkscape:connector-curvature="0" />
      <path
         id="path505"
         d="m 599.57409,603.28601 49.80957,0 -6.35742,116.01075 -13.17871,0 -2.68067,-88.23731 c -0.20996,-6.99219 -5.16601,-7.03613 -5.38086,0 l -2.68066,88.23731 -13.17871,0 z m 0,0"
         style="fill:#fad9bd;fill-opacity:1;fill-rule:evenodd;stroke:none"
         inkscape:connector-curvature="0" />
      <path
         id="path507"
         d="m 654.12975,518.33972 -4.74609,84.94629 -49.81446,0 -4.74121,-84.94629 z m 0,0"
         style="fill:#fad9bd;fill-opacity:1;fill-rule:evenodd;stroke:none"
         inkscape:connector-curvature="0" />
      <path
         id="path509"
         d="m 624.47643,472.30457 c 7.88086,0 14.33106,6.45019 14.33106,14.33105 l 0,31.11328 c 0,7.88575 -6.4502,14.33106 -14.33106,14.33106 -7.88085,0 -14.33105,-6.44531 -14.33105,-14.33106 l 0,-31.11328 c 0,-7.88086 6.4502,-14.33105 14.33105,-14.33105"
         style="fill:#fad9bd;fill-opacity:1;fill-rule:evenodd;stroke:none"
         inkscape:connector-curvature="0" />
      <path
         id="path511"
         d="m 646.80554,532.92469 34.4287,34.03808 c 4.35548,4.30664 13.97461,-5.11718 10.39551,-9.41406 l -28.80371,-34.56055 c -9.32129,-11.18652 -25.86914,0.2002 -16.0205,9.93653"
         style="fill:#fad9bd;fill-opacity:1;fill-rule:evenodd;stroke:none"
         inkscape:connector-curvature="0" />
      <path
         id="path513"
         d="m 638.80749,507.76355 c 0,11.96777 -28.66211,11.96777 -28.66211,0 0,-11.96289 28.66211,-11.96289 28.66211,0"
         style="fill:#deb899;fill-opacity:1;fill-rule:evenodd;stroke:none"
         inkscape:connector-curvature="0" />
      <path
         id="path515"
         d="m 624.47643,398.05163 c -62.70019,0 -57.8955,58.7793 -45.93262,79.45801 16.32324,28.22266 38.28125,34.46778 45.93262,34.46778 7.65625,0 29.60937,-6.24512 45.9375,-34.46778 11.9629,-20.67871 16.7627,-79.45801 -45.9375,-79.45801"
         style="fill:#fad9bd;fill-opacity:1;fill-rule:evenodd;stroke:none"
         inkscape:connector-curvature="0" />
      <path
         id="path517"
         d="m 601.6444,528.11024 -7.20704,49.02831 c -0.8789,5.98145 -12.79785,2.70509 -12.68066,-2.82226 l 0.94239,-44.73633 c 0.30274,-14.39454 20.93261,-14.98535 18.94531,-1.46972"
         style="fill:#fad9bd;fill-opacity:1;fill-rule:evenodd;stroke:none"
         inkscape:connector-curvature="0" />
      <path
         id="path519"
         d="m 596.49304,610.12195 c 0.48339,-0.32715 1.08397,0.32715 1.12792,0.89356 l 0.625,8.4082 c 0.044,0.57129 -0.50292,0.84961 -0.98145,1.17675 -0.4834,0.32228 -1.08397,-0.32714 -1.12792,-0.89355 l -0.62989,-8.4082 c -0.039,-0.57129 0.40528,-1.09864 0.98634,-1.17676"
         style="fill:#fad9bd;fill-opacity:1;fill-rule:evenodd;stroke:none"
         inkscape:connector-curvature="0" />
      <path
         id="path521"
         d="m 597.64049,613.7157 -0.27344,-3.61328 -11.94824,1.71875 0.27833,3.61328 c 1.15234,10.88867 13.30077,11.49902 11.94335,-1.71875"
         style="fill:#fad9bd;fill-opacity:1;fill-rule:evenodd;stroke:none"
         inkscape:connector-curvature="0" />
      <path
         id="path523"
         d="m 597.49889,611.16687 -2.583,-34.73145 c -2.23145,-9.19921 -15.01954,-8.99413 -13.27638,2.41212 l 4.01857,33.98926 z m 0,0"
         style="fill:#fad9bd;fill-opacity:1;fill-rule:evenodd;stroke:none"
         inkscape:connector-curvature="0" />
      <path
         id="path525"
         d="m 656.98131,575.3368 c -0.0244,-0.57129 -0.92285,-0.64454 -1.41113,-0.33204 l -7.28027,4.58008 c -0.49317,0.3125 -0.39551,0.90332 -0.3711,1.47461 0.0244,0.56641 0.92285,0.64454 1.41602,0.33204 l 7.2754,-4.58497 c 0.49316,-0.30762 0.65917,-0.97656 0.37108,-1.46972"
         style="fill:#fad9bd;fill-opacity:1;fill-rule:evenodd;stroke:none"
         inkscape:connector-curvature="0" />
      <path
         id="path527"
         d="m 663.76354,524.10632 5.32226,6.3916 -16.333,10.32715 -3.36914,62.46094 -49.81446,0 -2.70996,-59.66309 -14.36035,-4.6582 0.2002,-9.38476 c 26.875,8.23243 57.11914,11.5332 81.06445,-5.47364"
         style="fill:#8599b3;fill-opacity:1;fill-rule:evenodd;stroke:none"
         inkscape:connector-curvature="0" />
      <path
         id="path529"
         d="m 599.57409,603.28601 1.84082,33.65723 45.99609,0 1.97266,-33.65723 -25.20508,-31.57226 z m 0,0"
         style="fill:#8599b3;fill-opacity:1;fill-rule:evenodd;stroke:none"
         inkscape:connector-curvature="0" />
      <path
         id="path531"
         d="m 643.05554,719.29676 c 4.21875,6.10351 9.83397,9.61425 11.23535,14.01855 0.7959,2.49024 0.20507,5.63965 -2.32423,5.95215 -10.88867,1.34765 -14.04785,-3.99902 -17.9248,-5.08789 -6.7041,-1.87988 -6.875,-5.73242 -4.16503,-14.88281 2.70996,-9.1504 9.78515,-5.70801 13.17871,0"
         style="fill:#fad9bd;fill-opacity:1;fill-rule:evenodd;stroke:none"
         inkscape:connector-curvature="0" />
      <path
         id="path533"
         d="m 568.90514,448.21764 c 4.07715,-1.01562 9.02832,4.43849 11.06446,12.17774 2.03125,7.74414 0.37598,14.83399 -3.70606,15.84961 -4.07715,1.01074 -9.02831,-4.44336 -11.06445,-12.18261 -2.03125,-7.73926 -0.37598,-14.83399 3.70605,-15.84474"
         style="fill:#fad9bd;fill-opacity:1;fill-rule:evenodd;stroke:none"
         inkscape:connector-curvature="0" />
      <path
         id="path535"
         d="m 680.07702,448.21764 c -4.07715,-1.01562 -9.0332,4.43849 -11.06445,12.17774 -2.03125,7.74414 -0.37598,14.83399 3.70117,15.84961 4.07715,1.01074 9.0332,-4.44336 11.06934,-12.18261 2.03125,-7.73926 0.37597,-14.83399 -3.70606,-15.84474"
         style="fill:#fad9bd;fill-opacity:1;fill-rule:evenodd;stroke:none"
         inkscape:connector-curvature="0" />
      <path
         id="path537"
         d="m 641.22936,466.00573 c 2.14355,0 3.8916,-3.11035 3.8916,-6.92871 0,-3.81835 -1.74805,-6.9287 -3.8916,-6.9287 -2.13867,0 -3.88672,3.11035 -3.88672,6.9287 0,3.81836 1.74805,6.92871 3.88672,6.92871"
         style="fill:#3f4f54;fill-opacity:1;fill-rule:evenodd;stroke:none"
         inkscape:connector-curvature="0" />
      <path
         id="path539"
         d="m 607.7235,466.00573 c 2.14355,0 3.8916,-3.11035 3.8916,-6.92871 0,-3.81835 -1.74805,-6.9287 -3.8916,-6.9287 -2.13867,0 -3.88671,3.11035 -3.88671,6.9287 0,3.81836 1.74804,6.92871 3.88671,6.92871"
         style="fill:#3f4f54;fill-opacity:1;fill-rule:evenodd;stroke:none"
         inkscape:connector-curvature="0" />
      <path
         id="path541"
         d="m 644.7108,484.16979 c -7.53906,7.50489 -32.4707,7.40723 -40.46386,0 11.09375,4.62403 28.21289,4.55567 40.46386,0"
         style="fill:#bd946e;fill-opacity:1;fill-rule:evenodd;stroke:none"
         inkscape:connector-curvature="0" />
      <path
         id="path543"
         d="m 632.34264,473.83777 c -3.01758,7.48535 -12.70996,7.35351 -15.73241,0 4.41893,4.08691 11.07421,4.27734 15.73241,0"
         style="fill:#deb899;fill-opacity:1;fill-rule:evenodd;stroke:none"
         inkscape:connector-curvature="0" />
      <path
         id="path545"
         d="m 586.76648,436.32312 c -9.49219,8.32031 -8.89649,20.3418 -8.25197,28.67676 0.64942,8.33495 -3.02246,2.45116 -5.26855,-4.08204 -2.2461,-6.53808 -3.84277,-13.12011 -3.33985,-20.49805 0.50294,-7.37303 21.39162,-19.18456 16.86037,-4.09667"
         style="fill:#e6972b;fill-opacity:1;fill-rule:evenodd;stroke:none"
         inkscape:connector-curvature="0" />
      <path
         id="path547"
         d="m 678.07018,450.87389 c -8.31543,-3.84276 -16.43067,-6.51855 -26.03515,-8.17382 -2.36329,-13.72559 -6.31348,-20.99609 -8.82813,-24.32129 2.18261,7.98829 3.88184,16.01074 5.2002,23.75 -16.9629,-2.44629 -35.01465,-1.80176 -51.68946,1.21583 1.34766,-8.11524 3.10547,-16.55763 5.40527,-24.96583 -2.59765,3.43263 -6.72362,11.06445 -9.05273,25.66895 -8.24707,1.68456 -14.47265,3.18848 -21.62598,5.95215 -3.13965,-24.59472 12.43165,-55.71289 52.43653,-55.71289 40.06836,0 57.48535,31.36718 54.18945,56.5869"
         style="fill:#e6972b;fill-opacity:1;fill-rule:evenodd;stroke:none"
         inkscape:connector-curvature="0" />
      <path
         id="path549"
         d="m 662.24499,436.32312 c 9.49706,8.32031 8.90136,20.3418 8.25195,28.67676 -0.64452,8.33495 3.02246,2.45116 5.26855,-4.08204 2.2461,-6.53808 3.84766,-13.12011 3.34474,-20.49805 -0.50781,-7.37303 -21.39162,-19.18456 -16.86524,-4.09667"
         style="fill:#e6972b;fill-opacity:1;fill-rule:evenodd;stroke:none"
         inkscape:connector-curvature="0" />
      <path
         id="path551"
         d="m 598.22643,728.03211 c -1.63574,1.77734 -2.94922,3.45215 -3.53515,5.2832 -2.05079,6.43555 3.68163,6.60645 8.36426,6.00098 6.24511,-0.80567 8.84765,-4.28223 11.88964,-5.13672 6.02051,-1.68946 6.77246,-4.97071 4.89258,-12.25586 -0.25391,6.35743 -6.19628,8.08105 -12.79785,11.21581 -6.60156,3.12989 -11.91895,0.0292 -8.81348,-5.10741"
         style="fill:#637a99;fill-opacity:1;fill-rule:evenodd;stroke:none"
         inkscape:connector-curvature="0" />
      <path
         id="path553"
         d="m 650.76061,728.03211 c 1.64063,1.77734 2.94922,3.45215 3.53515,5.2832 2.34864,7.36816 -6.01562,6.81153 -10.74706,5.53223 -4.58496,-1.24512 -6.87989,-3.93067 -9.50684,-4.66797 -6.02051,-1.68946 -6.76757,-4.97071 -4.89257,-12.25586 0.25879,6.35743 6.20116,8.08105 12.79785,11.21581 6.60156,3.12989 11.91894,0.0292 8.81347,-5.10741"
         style="fill:#637a99;fill-opacity:1;fill-rule:evenodd;stroke:none"
         inkscape:connector-curvature="0" />
      <path
         id="path555"
         d="m 633.87585,491.22546 c -3.50099,4.61915 -15.08301,4.55079 -18.79884,0 5.41993,2.14356 13.38379,2.15332 18.79884,0"
         style="fill:#deb899;fill-opacity:1;fill-rule:evenodd;stroke:none"
         inkscape:connector-curvature="0" />
      <path
         id="path557"
         d="m 655.51648,575.18542 25.74706,-20.18066 c 8.89649,-3.82324 17.08496,7.51465 6.67481,13.04688 l -26.6504,17.31933 z m 0,0"
         style="fill:#fad9bd;fill-opacity:1;fill-rule:evenodd;stroke:none"
         inkscape:connector-curvature="0" />
      <path
         id="path559"
         d="m 653.33874,576.61609 3.13476,-1.96777 5.79101,10.29785 -3.12987,1.96778 c -9.63379,5.66894 -17.46094,-3.37891 -5.7959,-10.29786"
         style="fill:#fad9bd;fill-opacity:1;fill-rule:evenodd;stroke:none"
         inkscape:connector-curvature="0" />
      <path
         id="path561"
         d="m 639.47643,443.53503 c 3.81348,-0.89844 8.19825,1.18164 10.07325,4.4873 0.94237,1.65528 0.29785,1.85548 -0.3418,0.84474 -2.48047,-3.94044 -6.20605,-4.31641 -9.49219,-3.63281 -1.74316,0.36132 -2.19239,-1.24024 -0.23926,-1.69923"
         style="fill:#e6972b;fill-opacity:1;fill-rule:evenodd;stroke:none"
         inkscape:connector-curvature="0" />
      <path
         id="path563"
         d="m 609.51061,443.53503 c -3.81836,-0.89844 -8.19825,1.18164 -10.07812,4.4873 -0.94239,1.65528 -0.29785,1.85548 0.3418,0.84474 2.48046,-3.94044 6.20605,-4.31641 9.49219,-3.63281 1.74316,0.36132 2.19237,-1.24024 0.24413,-1.69923"
         style="fill:#e6972b;fill-opacity:1;fill-rule:evenodd;stroke:none"
         inkscape:connector-curvature="0" />
      <path
         id="path565"
         d="m 669.0858,530.49792 c -27.60254,26.27442 -74.63379,14.08692 -86.58202,8.4668 l 0.1416,-9.37988 c 12.55371,5.24902 53.61816,13.45703 80.97167,-5.2539 z m 0,0"
         style="fill:#637a99;fill-opacity:1;fill-rule:evenodd;stroke:none"
         inkscape:connector-curvature="0" />
    </g>
  </g>
</svg>
