<?xml version="1.0" encoding="UTF-8" standalone="no"?>
<!-- Created with Inkscape (http://www.inkscape.org/) -->

<svg
   xmlns:dc="http://purl.org/dc/elements/1.1/"
   xmlns:cc="http://creativecommons.org/ns#"
   xmlns:rdf="http://www.w3.org/1999/02/22-rdf-syntax-ns#"
   xmlns:svg="http://www.w3.org/2000/svg"
   xmlns="http://www.w3.org/2000/svg"
   xmlns:sodipodi="http://sodipodi.sourceforge.net/DTD/sodipodi-0.dtd"
   xmlns:inkscape="http://www.inkscape.org/namespaces/inkscape"
   width="48mm"
   height="63mm"
   viewBox="0 0 170.07865 223.22822"
   id="svg3701"
   version="1.1"
   inkscape:version="0.91 r13725"
   sodipodi:docname="sail1.svg">
  <defs
     id="defs3703" />
  <sodipodi:namedview
     id="base"
     pagecolor="#ffffff"
     bordercolor="#666666"
     borderopacity="1.0"
     inkscape:pageopacity="0.0"
     inkscape:pageshadow="2"
     inkscape:zoom="0.35"
     inkscape:cx="375"
     inkscape:cy="520"
     inkscape:document-units="px"
     inkscape:current-layer="layer1"
     showgrid="false"
     inkscape:window-width="1366"
     inkscape:window-height="706"
     inkscape:window-x="-8"
     inkscape:window-y="-8"
     inkscape:window-maximized="1" />
  <metadata
     id="metadata3706">
    <rdf:RDF>
      <cc:Work
         rdf:about="">
        <dc:format>image/svg+xml</dc:format>
        <dc:type
           rdf:resource="http://purl.org/dc/dcmitype/StillImage" />
        <dc:title></dc:title>
      </cc:Work>
    </rdf:RDF>
  </metadata>
  <g
     inkscape:label="Layer 1"
     inkscape:groupmode="layer"
     id="layer1"
     transform="translate(0,-829.13391)">
    <path
       style="fill:#ffffff"
       d="m 57.153054,1051.4474 -54.1103897,-0.2295 0,-2.6711 c 0,-1.4692 0.60595,-6.7055 1.34655,-11.6363 8.2657697,-55.03263 32.7699497,-104.79803 78.6904097,-159.81193 9.42127,-11.2869 26.120746,-29.9718 26.472596,-29.62 0.16203,0.162 -0.48682,3.2855 -1.4419,6.9409 -8.679516,33.2202 -9.161496,72.2285 -1.30373,105.5147 3.60494,15.2709 11.10906,36.9103 13.07589,37.7066 0.40335,0.1633 0.73336,0.9156 0.73336,1.6718 0,1.90343 6.39203,13.38583 12.72719,22.86253 6.54974,9.7977 17.20807,21.118 24.11073,25.6082 l 5.21785,3.3943 -25.70409,0.2497 c -14.13726,0.1373 -50.053756,0.1464 -79.814466,0.02 l 0,0 z"
       id="path3414"
       inkscape:connector-curvature="0" />
  </g>
</svg>
