<?xml version="1.0" encoding="UTF-8" standalone="no"?>
<!-- Created with Inkscape (http://www.inkscape.org/) -->

<svg
   xmlns:dc="http://purl.org/dc/elements/1.1/"
   xmlns:cc="http://creativecommons.org/ns#"
   xmlns:rdf="http://www.w3.org/1999/02/22-rdf-syntax-ns#"
   xmlns:svg="http://www.w3.org/2000/svg"
   xmlns="http://www.w3.org/2000/svg"
   xmlns:sodipodi="http://sodipodi.sourceforge.net/DTD/sodipodi-0.dtd"
   xmlns:inkscape="http://www.inkscape.org/namespaces/inkscape"
   width="800"
   height="300"
   viewBox="0 0 800.00001 300"
   id="svg3350"
   version="1.1"
   inkscape:version="0.91 r13725"
   sodipodi:docname="stormclouds.svg">
  <defs
     id="defs3352" />
  <sodipodi:namedview
     id="base"
     pagecolor="#ffffff"
     bordercolor="#666666"
     borderopacity="1.0"
     inkscape:pageopacity="0.0"
     inkscape:pageshadow="2"
     inkscape:zoom="0.7"
     inkscape:cx="348.88105"
     inkscape:cy="53.049115"
     inkscape:document-units="px"
     inkscape:current-layer="layer1"
     showgrid="false"
     units="px"
     width="800px"
     inkscape:window-width="1366"
     inkscape:window-height="706"
     inkscape:window-x="-8"
     inkscape:window-y="-8"
     inkscape:window-maximized="1" />
  <metadata
     id="metadata3355">
    <rdf:RDF>
      <cc:Work
         rdf:about="">
        <dc:format>image/svg+xml</dc:format>
        <dc:type
           rdf:resource="http://purl.org/dc/dcmitype/StillImage" />
        <dc:title></dc:title>
      </cc:Work>
    </rdf:RDF>
  </metadata>
  <g
     inkscape:label="Layer 1"
     inkscape:groupmode="layer"
     id="layer1"
     transform="translate(0,-752.36216)">
    <path
       style="fill:#4d4d4d"
       d="m 476.52542,1013.7667 c -5.31767,-2.6218 -14.66538,-10.2975 -20.77303,-17.05798 l -11.10455,-12.29134 c -41.32019,13.28367 -49.92383,3.81652 -65.69679,-5.20034 -11.4153,-11.63028 -11.01307,-19.41192 -18.51773,-18.73173 -20.75205,17.10395 -47.35106,16.90658 -67.20488,3.45431 l -27.53904,-18.67045 -10.0917,10.61045 c -13.78414,14.4925 -30.46067,21.67417 -50.33055,21.67417 -21.55666,0 -30.38856,-0.39641 -48.64979,-13.6121 l -17.01749,-12.31638 c 17.01749,12.31638 -34.18154,66.85139 -52.534941,33.32366 -20.934649,36.34993 -79.8636914,25.17603 -93.4547337,-29.55295 0,0 -24.3513983,-41.18754 -22.9732853,-113.07642 1.641565,-85.63174 5.470258,-205.46133 -15.620472,-157.07963 35.5777081,-180.09601 940.369612,-93.2166 884.570692,-2.71104 -12.86731,18.95423 -18.41759,232.40975 -28.94265,259.44191 -44.11896,113.31436 -152.74458,44.81343 -164.16907,52.55791 -21.62572,14.65905 -55.27859,14.57645 -76.0127,-0.18781 l -8.73822,-6.22222 -10.93938,10.47653 c -6.0166,5.76195 -15.23202,12.63605 -20.47854,15.27585 -12.30344,6.1901 -41.12778,6.135 -53.78115,-0.1044 z"
       id="path3339"
       inkscape:connector-curvature="0"
       sodipodi:nodetypes="sscccccsssccssccssscsss" />
    <path
       style="fill:#666666"
       id="path3366"
       d="m 74.167739,804.16454 c 7.692654,-2.77368 15.218268,-5.9654 22.748007,-9.14576 5.895684,-2.86006 12.147094,-4.02342 18.611034,-4.54376 5.82129,-0.19626 11.52669,-1.45693 17.30145,-2.14545 8.35852,-1.14601 16.59031,1.20682 24.67855,3.02733 9.79108,2.28012 19.19462,5.79089 28.34932,9.89229 4.81775,2.35664 9.54323,4.94057 13.86918,8.12135 3.44719,2.43465 6.39097,5.49 9.55611,8.26567 0.37134,0.36984 0.74267,0.73969 1.114,1.10953 0,0 -6.00399,3.68009 -6.00399,3.68009 l 0,0 c -0.36045,-0.36046 -0.7209,-0.72092 -1.08136,-1.08138 -3.11427,-2.79779 -6.05708,-5.82218 -9.50332,-8.22165 -4.28158,-3.13271 -8.9314,-5.7275 -13.68903,-8.06401 -9.08934,-4.10052 -18.422,-7.64678 -28.17576,-9.84174 -8.09846,-1.77484 -16.33288,-3.95674 -24.6787,-2.74041 -5.77784,0.71712 -11.49431,1.96167 -17.32759,2.13265 -6.39514,0.56035 -12.558743,1.86326 -18.397461,4.65432 -7.600363,3.19883 -15.188393,6.44874 -22.97181,9.18407 0,0 5.60137,-4.28314 5.60137,-4.28314 z"
       inkscape:connector-curvature="0" />
    <path
       style="fill:#666666"
       id="path3368"
       d="m 206.67502,809.85085 c 10.62911,-4.14665 21.424,-7.80639 32.3505,-11.10526 8.42823,-2.54804 16.98437,-4.65616 25.76838,-5.40596 5.95271,-0.81197 11.66183,0.63093 17.36819,2.14016 7.82521,2.04312 15.4859,4.64217 23.187,7.09931 5.50001,1.19872 10.27275,3.92792 15.13975,6.58752 2.66501,1.4305 4.51578,3.62154 6.24201,6.01314 0.69879,0.93786 1.07244,2.01214 1.43253,3.10749 0,0 -6.19536,3.40392 -6.19536,3.40392 l 0,0 c -0.32516,-1.03184 -0.66574,-2.03736 -1.32473,-2.91659 -1.64815,-2.31608 -3.45218,-4.40807 -6.01761,-5.7847 -4.79403,-2.67826 -9.56489,-5.27027 -14.97792,-6.53267 -7.69112,-2.47311 -15.34509,-5.08926 -23.18771,-7.05156 -5.67771,-1.44061 -11.34443,-2.76225 -17.24481,-1.93645 -8.67269,0.80948 -17.13846,2.84003 -25.47048,5.35516 -11.04562,3.3427 -21.92547,7.12405 -32.65491,11.36559 0,0 5.58517,-4.3391 5.58517,-4.3391 z"
       inkscape:connector-curvature="0" />
    <path
       style="fill:#666666"
       id="path3370"
       d="m 285.39357,865.37555 c 0.81453,-0.46245 3.37479,-1.48806 2.44357,-1.38736 -1.06994,0.1157 -3.18053,2.47252 -2.8917,1.43582 0.34279,-1.23038 2.08782,-1.47228 3.1138,-2.23299 2.72718,-2.02208 5.31778,-4.15438 7.82752,-6.43687 3.32371,-3.3257 6.57631,-6.73981 9.63924,-10.30855 2.91784,-2.97716 5.58683,-6.2375 8.71304,-9.00096 2.30348,-1.91993 4.51206,-3.94289 6.67452,-6.02075 1.39875,-1.63239 3.21795,-2.74582 5.07175,-3.79109 6.88905,-3.88437 9.38409,-5.40353 16.19417,-7.46117 5.3292,-1.2598 10.53463,-2.99216 15.96726,-3.76392 5.82165,-0.85876 11.69163,-1.19243 17.56837,-1.43908 9.7776,-0.74846 19.47823,-2.2128 29.23263,-3.20123 7.40029,-0.95692 14.77839,-1.21309 22.15721,-0.10793 3.45064,0.68665 6.46836,2.42521 9.1981,4.57786 0,0 -5.93843,3.74003 -5.93843,3.74003 l 0,0 c -2.66587,-2.05844 -5.61033,-3.68233 -8.96076,-4.30229 -7.29314,-1.06351 -14.59329,-0.76767 -21.90426,0.13629 -9.78499,1.01411 -19.51755,2.51983 -29.3324,3.22603 -5.90144,0.27959 -11.7865,0.69347 -17.63183,1.57631 -5.36038,0.84769 -10.53996,2.47573 -15.80212,3.77102 -1.25615,0.40052 -2.53012,0.74892 -3.76845,1.20156 -1.16726,0.42665 -2.53893,2.28808 -3.44162,1.43387 -0.85025,-0.80459 2.08268,-1.11467 2.96014,-1.8895 1.17514,-1.03769 -2.79014,1.47853 -3.99588,2.4805 -0.39649,0.32948 -0.70904,0.74852 -1.06356,1.12278 -2.12267,2.13218 -4.36865,4.13392 -6.66449,6.07232 -3.23682,2.63251 -5.80569,6.00379 -8.79212,8.90892 -3.03567,3.62736 -6.34937,7.02423 -9.6514,10.40793 -6.71938,6.23061 -14.30015,11.43692 -22.45995,15.62895 0,0 5.53765,-4.3765 5.53765,-4.3765 z"
       inkscape:connector-curvature="0" />
    <path
       style="fill:#666666"
       id="path3372"
       d="m 330.88135,818.93922 c 0.36261,0.60845 0.72523,1.21689 1.08785,1.82534 0,0 -6.05681,3.51737 -6.05681,3.51737 l 0,0 c -0.38032,-0.60625 -0.76064,-1.21251 -1.14097,-1.81877 0,0 6.10993,-3.52394 6.10993,-3.52394 z"
       inkscape:connector-curvature="0" />
    <path
       style="fill:#666666"
       id="path3374"
       d="m 432.54914,816.6465 c 3.62227,2.3747 7.27326,4.73661 10.87001,7.16413 3.60915,2.37824 7.15458,4.88847 10.46681,7.66649 4.09868,3.54934 7.08472,8.12724 10.12692,12.56222 2.9655,4.43031 6.09415,8.79825 8.65854,13.47955 1.41119,2.22869 2.08607,4.79151 3.38976,7.06745 0,0 -6.10848,3.52181 -6.10848,3.52181 l 0,0 c -1.29623,-2.29 -1.98632,-4.84438 -3.37011,-7.09631 -2.50282,-4.68585 -5.57892,-9.06053 -8.54104,-13.46147 -3.02468,-4.37693 -6.02424,-8.86845 -10.09752,-12.35688 -3.31819,-2.73829 -6.8164,-5.26734 -10.42612,-7.6085 -3.58215,-2.41025 -7.17562,-4.84166 -10.87361,-7.05331 0,0 5.90484,-3.88518 5.90484,-3.88518 z"
       inkscape:connector-curvature="0" />
    <path
       style="fill:#666666"
       id="path3376"
       d="m 628.22361,879.46045 c -1.27808,0.72917 -5.12559,2.89284 -3.83422,2.18751 15.17628,-8.28913 11.47663,-6.26531 22.70226,-12.67789 4.03238,-2.05509 8.13533,-4.06529 12.53448,-5.19432 3.60267,-1.1215 7.17907,-2.25094 10.89826,-2.92267 3.48848,-0.23646 6.90073,-0.98354 10.35562,-1.4784 3.05631,-0.0998 5.92881,-0.89943 8.80356,-1.86029 3.31062,-1.13402 6.81954,-1.26659 10.28267,-1.40772 4.43328,-0.27796 8.8245,0.0186 13.04931,1.41789 4.15953,1.79955 7.75348,4.61362 11.57924,7.00045 2.75834,1.75637 5.4078,3.74676 7.7292,6.05666 0,0 -6.01964,3.69313 -6.01964,3.69313 l 0,0 c -2.29562,-2.25912 -4.87191,-4.24444 -7.59526,-5.95979 -3.75928,-2.39135 -7.33674,-5.15638 -11.48931,-6.84725 -4.19538,-1.28732 -8.53601,-1.50882 -12.90525,-1.21499 -3.44695,0.1771 -6.91829,0.39612 -10.19521,1.58217 -2.89445,0.94575 -5.82479,1.56946 -8.87288,1.75963 -3.44255,0.51821 -6.86268,1.16371 -10.3308,1.49505 -3.70015,0.7242 -7.26145,1.89713 -10.87026,2.9698 -4.31116,1.21994 -8.36706,3.18965 -12.33063,5.25342 11.03799,-6.56954 -12.25994,7.41428 -13.69396,7.64242 -1.12126,0.17837 3.87308,-2.36904 2.88123,-1.81653 -2.75112,1.5325 -5.44123,3.17205 -8.16185,4.75808 0,0 5.48344,-4.43636 5.48344,-4.43636 z"
       inkscape:connector-curvature="0" />
    <path
       style="fill:#666666"
       id="path3378"
       d="m 724.02401,857.21764 c 4.39903,-1.06402 8.67991,-2.59166 12.92534,-4.15454 3.29879,-1.52819 6.52051,-3.25346 9.94264,-4.49332 2.84648,-0.69373 5.65692,-1.52734 8.54609,-2.04037 3.05049,-0.47548 6.14388,-0.48734 9.22312,-0.52405 3.61183,0.0657 7.24448,-0.21204 10.83856,0.19545 3.37124,0.89483 6.47323,2.48445 9.86242,3.35386 2.85935,0.97962 5.64808,2.12876 8.58825,2.85246 2.92338,0.48102 5.85481,0.99317 8.69434,1.85475 3.6459,0.71974 6.13682,3.21037 8.81591,5.56494 2.85207,2.33399 5.64272,4.68538 8.03615,7.50005 1.3039,2.04692 2.37165,4.26796 3.01504,6.61323 0,0 -6.21005,3.37221 -6.21005,3.37221 l 0,0 c -0.59114,-2.25281 -1.61457,-4.38162 -2.8478,-6.34958 -2.36558,-2.78776 -5.11487,-5.12891 -7.94126,-7.43595 -2.63881,-2.29456 -5.1127,-4.60829 -8.68284,-5.28621 -2.85486,-0.79068 -5.77016,-1.30293 -8.68033,-1.83705 -2.92327,-0.77666 -5.71556,-1.92541 -8.58923,-2.8609 -3.33101,-0.92618 -6.40997,-2.5415 -9.78983,-3.26678 -3.58678,-0.31677 -7.19738,-0.0885 -10.79463,-0.12788 -3.06174,0.0479 -6.13879,0.0957 -9.16304,0.62968 -2.85475,0.56249 -5.67036,1.33598 -8.46533,2.13379 -3.37338,1.31892 -6.58226,3.01452 -9.9042,4.45434 -4.29007,1.55358 -8.61088,3.11527 -13.07499,4.08486 0,0 5.65567,-4.23299 5.65567,-4.23299 z"
       inkscape:connector-curvature="0" />
  </g>
</svg>
