<?xml version="1.0" encoding="UTF-8" standalone="no"?>
<!-- Created with Inkscape (http://www.inkscape.org/) -->

<svg
   xmlns:dc="http://purl.org/dc/elements/1.1/"
   xmlns:cc="http://creativecommons.org/ns#"
   xmlns:rdf="http://www.w3.org/1999/02/22-rdf-syntax-ns#"
   xmlns:svg="http://www.w3.org/2000/svg"
   xmlns="http://www.w3.org/2000/svg"
   xmlns:sodipodi="http://sodipodi.sourceforge.net/DTD/sodipodi-0.dtd"
   xmlns:inkscape="http://www.inkscape.org/namespaces/inkscape"
   width="210mm"
   height="26mm"
   viewBox="0 0 744.09449 92.125935"
   id="svg3394"
   version="1.1"
   inkscape:version="0.91 r13725"
   sodipodi:docname="wave2.svg">
  <defs
     id="defs3396" />
  <sodipodi:namedview
     id="base"
     pagecolor="#ffffff"
     bordercolor="#666666"
     borderopacity="1.0"
     inkscape:pageopacity="0.0"
     inkscape:pageshadow="2"
     inkscape:zoom="0.35"
     inkscape:cx="375"
     inkscape:cy="520"
     inkscape:document-units="px"
     inkscape:current-layer="layer1"
     showgrid="false"
     inkscape:window-width="1366"
     inkscape:window-height="706"
     inkscape:window-x="-8"
     inkscape:window-y="-8"
     inkscape:window-maximized="1" />
  <metadata
     id="metadata3399">
    <rdf:RDF>
      <cc:Work
         rdf:about="">
        <dc:format>image/svg+xml</dc:format>
        <dc:type
           rdf:resource="http://purl.org/dc/dcmitype/StillImage" />
        <dc:title></dc:title>
      </cc:Work>
    </rdf:RDF>
  </metadata>
  <g
     inkscape:label="Layer 1"
     inkscape:groupmode="layer"
     id="layer1"
     transform="translate(0,-960.23693)">
    <g
       id="g10253"
       transform="matrix(0.91438748,0,0,-0.91438748,727.3626,962.8191)">
      <path
         d="m 0,0 -0.154,0 c -0.38,-3.839 -2.31,-7.395 -5.369,-10.397 l 0,0.011 c -5.668,-5.558 -15.225,-9.209 -26.061,-9.209 -14.6,0 -26.873,6.627 -30.442,15.616 C -62.534,-2.695 -62.865,-1.365 -63,0 l -0.004,0 c 0,0.005 -0.002,0.011 -0.002,0.016 l -0.154,0 c -1.084,-10.952 -14.735,-19.611 -31.424,-19.611 -14.6,0 -26.873,6.627 -30.442,15.616 -0.508,1.284 -0.839,2.614 -0.974,3.979 l -0.004,0 c 0,0.005 -0.002,0.011 -0.002,0.016 l -0.154,0 c -1.084,-10.952 -14.735,-19.611 -31.424,-19.611 -14.6,0 -26.874,6.627 -30.443,15.617 -0.507,1.284 -0.838,2.613 -0.973,3.978 l -0.004,0 c 0,0.005 -0.002,0.011 -0.002,0.016 l -0.154,0 c -1.084,-10.952 -14.735,-19.611 -31.424,-19.611 -14.6,0 -26.874,6.627 -30.443,15.617 -0.507,1.284 -0.838,2.613 -0.973,3.978 l -0.004,0 c 0,0.005 -0.002,0.011 -0.002,0.016 l -0.154,0 c -1.084,-10.952 -14.735,-19.611 -31.424,-19.611 -14.6,0 -26.873,6.627 -30.442,15.616 -0.508,1.284 -0.839,2.614 -0.974,3.979 l -0.004,0 c 0,0.005 -0.002,0.011 -0.002,0.016 l -0.154,0 c -1.084,-10.952 -14.735,-19.611 -31.424,-19.611 -14.6,0 -26.873,6.627 -30.442,15.616 -0.508,1.284 -0.839,2.614 -0.974,3.979 l -0.004,0 c 0,0.005 -0.002,0.011 -0.002,0.016 l -0.154,0 c -1.084,-10.952 -14.735,-19.611 -31.424,-19.611 -14.6,0 -26.874,6.627 -30.443,15.616 -0.507,1.284 -0.838,2.614 -0.973,3.979 l -0.004,0 c 0,0.005 -10e-4,0.011 -0.002,0.016 l -0.155,0 c -1.082,-10.952 -14.732,-19.611 -31.422,-19.611 -14.601,0 -26.875,6.627 -30.444,15.616 -0.507,1.284 -0.838,2.614 -0.973,3.979 l -0.004,0 c 0,0.005 -10e-4,0.011 -0.002,0.016 l -0.155,0 c -1.082,-10.952 -14.732,-19.611 -31.422,-19.611 -14.601,0 -32.773,4.847 -32.773,19.611 0,-12.389 -17.915,-19.611 -30.227,-19.611 -16.691,0 -30.341,8.659 -31.423,19.611 l -0.155,0 c -1.082,-10.952 -14.732,-19.611 -31.422,-19.611 -16.691,0 -30.341,8.659 -31.423,19.611 l -0.155,0 c -1.082,-10.952 -14.732,-19.611 -31.422,-19.611 -16.691,0 -30.341,8.659 -31.423,19.611 l -0.155,0 c -1.082,-10.952 -14.732,-19.611 -31.422,-19.611 -2.774,0 -5.461,0.244 -8.023,0.694 l 0,-83.207 225.165,0 0,-0.015 593.835,0 0,83.207 C 10.542,-16.661 0.902,-9.129 0,0"
         style="fill:#40adb2;fill-opacity:1;fill-rule:nonzero;stroke:none"
         id="path10255"
         inkscape:connector-curvature="0" />
    </g>
  </g>
</svg>
