<?xml version="1.0" encoding="UTF-8" standalone="no"?>
<!-- Created with Inkscape (http://www.inkscape.org/) -->

<svg
   xmlns:dc="http://purl.org/dc/elements/1.1/"
   xmlns:cc="http://creativecommons.org/ns#"
   xmlns:rdf="http://www.w3.org/1999/02/22-rdf-syntax-ns#"
   xmlns:svg="http://www.w3.org/2000/svg"
   xmlns="http://www.w3.org/2000/svg"
   xmlns:sodipodi="http://sodipodi.sourceforge.net/DTD/sodipodi-0.dtd"
   xmlns:inkscape="http://www.inkscape.org/namespaces/inkscape"
   width="210mm"
   height="27mm"
   viewBox="0 0 744.09449 95.66924"
   id="svg3446"
   version="1.1"
   inkscape:version="0.91 r13725"
   sodipodi:docname="wave4.svg">
  <defs
     id="defs3448" />
  <sodipodi:namedview
     id="base"
     pagecolor="#ffffff"
     bordercolor="#666666"
     borderopacity="1.0"
     inkscape:pageopacity="0.0"
     inkscape:pageshadow="2"
     inkscape:zoom="0.35"
     inkscape:cx="375"
     inkscape:cy="520"
     inkscape:document-units="px"
     inkscape:current-layer="layer1"
     showgrid="false"
     inkscape:window-width="1366"
     inkscape:window-height="706"
     inkscape:window-x="-8"
     inkscape:window-y="-8"
     inkscape:window-maximized="1" />
  <metadata
     id="metadata3451">
    <rdf:RDF>
      <cc:Work
         rdf:about="">
        <dc:format>image/svg+xml</dc:format>
        <dc:type
           rdf:resource="http://purl.org/dc/dcmitype/StillImage" />
        <dc:title></dc:title>
      </cc:Work>
    </rdf:RDF>
  </metadata>
  <g
     inkscape:label="Layer 1"
     inkscape:groupmode="layer"
     id="layer1"
     transform="translate(0,-956.69362)">
    <g
       transform="matrix(0.9035993,0,0,-0.9035993,719.30762,961.06277)"
       id="g528">
      <path
         inkscape:connector-curvature="0"
         id="path530"
         style="fill:#3a9ea2;fill-opacity:1;fill-rule:nonzero;stroke:none"
         d="m 0,0 -0.154,0 c -0.38,-3.84 -2.31,-7.396 -5.369,-10.397 l 0,0.01 c -5.668,-5.557 -15.225,-9.209 -26.061,-9.209 -14.6,0 -26.873,6.627 -30.442,15.617 C -62.534,-2.696 -62.865,-1.366 -63,0 l -0.004,0 c 0,0.005 -0.002,0.011 -0.002,0.015 l -0.154,0 c -1.084,-10.951 -14.735,-19.611 -31.424,-19.611 -14.6,0 -26.873,6.627 -30.442,15.617 -0.508,1.283 -0.839,2.613 -0.974,3.979 l -0.004,0 c 0,0.005 -0.002,0.011 -0.002,0.015 l -0.154,0 c -1.084,-10.951 -14.735,-19.611 -31.424,-19.611 -14.6,0 -26.874,6.627 -30.443,15.618 -0.507,1.283 -0.838,2.612 -0.973,3.978 l -0.004,0 c 0,0.005 -0.002,0.011 -0.002,0.015 l -0.154,0 c -1.084,-10.951 -14.735,-19.611 -31.424,-19.611 -14.6,0 -26.874,6.627 -30.443,15.618 -0.507,1.283 -0.838,2.612 -0.973,3.978 l -0.004,0 c 0,0.005 -0.002,0.011 -0.002,0.015 l -0.154,0 c -1.084,-10.951 -14.735,-19.611 -31.424,-19.611 -14.6,0 -26.873,6.627 -30.442,15.617 -0.508,1.283 -0.839,2.613 -0.974,3.979 l -0.004,0 c 0,0.005 -0.002,0.011 -0.002,0.015 l -0.154,0 c -1.084,-10.951 -14.735,-19.611 -31.424,-19.611 -14.6,0 -26.873,6.627 -30.442,15.617 -0.508,1.283 -0.839,2.613 -0.974,3.979 l -0.004,0 c 0,0.005 -0.002,0.011 -0.002,0.015 l -0.154,0 c -1.084,-10.951 -14.735,-19.611 -31.424,-19.611 -14.6,0 -26.873,6.627 -30.443,15.617 -0.507,1.283 -0.838,2.613 -0.973,3.979 l -0.004,0 c 0,0.005 -0.002,0.011 -0.002,0.015 l -0.155,0 c -1.082,-10.951 -14.732,-19.611 -31.422,-19.611 -14.601,0 -26.875,6.627 -30.444,15.617 -0.507,1.283 -0.838,2.613 -0.973,3.979 l -0.004,0 c 0,0.005 -10e-4,0.011 -0.002,0.015 l -0.155,0 c -1.082,-10.951 -14.732,-19.611 -31.422,-19.611 -14.601,0 -26.875,6.627 -30.444,15.617 -0.507,1.283 -0.838,2.613 -0.973,3.979 l -0.004,0 c 0,0.005 -10e-4,0.011 -0.002,0.015 l -0.155,0 c -0.001,-0.004 -0.002,-0.01 -0.002,-0.015 l -3.278,0 0,-8.012 c -5.179,-6.868 -15.83,-11.584 -28.142,-11.584 -16.691,0 -30.341,8.66 -31.423,19.611 l -0.155,0 c -1.082,-10.951 -14.732,-19.611 -31.422,-19.611 -16.691,0 -30.341,8.66 -31.423,19.611 l -0.155,0 c -1.082,-10.951 -14.732,-19.611 -31.422,-19.611 -16.691,0 -30.341,8.66 -31.423,19.611 l -0.155,0 c -1.082,-10.951 -14.732,-19.611 -31.422,-19.611 -2.774,0 -5.461,0.244 -8.023,0.694 l 0,-83.206 225.165,0 0,-0.016 593.835,0 0,83.208 C 10.542,-16.661 0.902,-9.129 0,0" />
    </g>
  </g>
</svg>
