<?xml version="1.0" encoding="UTF-8" standalone="no"?>
<!-- Created with Inkscape (http://www.inkscape.org/) -->

<svg
   xmlns:dc="http://purl.org/dc/elements/1.1/"
   xmlns:cc="http://creativecommons.org/ns#"
   xmlns:rdf="http://www.w3.org/1999/02/22-rdf-syntax-ns#"
   xmlns:svg="http://www.w3.org/2000/svg"
   xmlns="http://www.w3.org/2000/svg"
   xmlns:sodipodi="http://sodipodi.sourceforge.net/DTD/sodipodi-0.dtd"
   xmlns:inkscape="http://www.inkscape.org/namespaces/inkscape"
   width="210mm"
   height="25mm"
   viewBox="0 0 744.09449 88.58263"
   id="svg3472"
   version="1.1"
   inkscape:version="0.91 r13725"
   sodipodi:docname="wave5.svg">
  <defs
     id="defs3474" />
  <sodipodi:namedview
     id="base"
     pagecolor="#ffffff"
     bordercolor="#666666"
     borderopacity="1.0"
     inkscape:pageopacity="0.0"
     inkscape:pageshadow="2"
     inkscape:zoom="0.35"
     inkscape:cx="375"
     inkscape:cy="520"
     inkscape:document-units="px"
     inkscape:current-layer="layer1"
     showgrid="false"
     inkscape:window-width="1366"
     inkscape:window-height="706"
     inkscape:window-x="-8"
     inkscape:window-y="-8"
     inkscape:window-maximized="1" />
  <metadata
     id="metadata3477">
    <rdf:RDF>
      <cc:Work
         rdf:about="">
        <dc:format>image/svg+xml</dc:format>
        <dc:type
           rdf:resource="http://purl.org/dc/dcmitype/StillImage" />
        <dc:title></dc:title>
      </cc:Work>
    </rdf:RDF>
  </metadata>
  <g
     inkscape:label="Layer 1"
     inkscape:groupmode="layer"
     id="layer1"
     transform="translate(0,-963.78024)">
    <g
       id="g10217"
       transform="matrix(1.25,0,0,-1.25,951.8242,361.61051)">
      <path
         d="m -173.77666,-497.59092 c -10.84339,0 -19.95853,4.84807 -22.60922,11.4231 -0.37728,0.93772 -0.62311,1.91128 -0.72338,2.91045 l -0.003,0 c 0,0.004 -0.002,0.008 -0.002,0.0103 l -0.11438,0 c -0.80508,-8.00941 -10.94365,-14.3438 -23.33853,-14.3438 -10.84339,0 -19.95851,4.84808 -22.60921,11.42311 -0.37729,0.93772 -0.62312,1.91128 -0.72339,2.91045 l -0.003,0 c 0,0.004 -0.002,0.008 -0.002,0.0103 l -0.11439,0 c -0.80507,-8.00941 -10.94364,-14.3438 -23.33852,-14.3438 -10.84339,0 -19.95927,4.84808 -22.60995,11.42384 -0.37655,0.93772 -0.62238,1.91055 -0.72265,2.90972 l -0.003,0 c 0,0.004 -0.002,0.008 -0.002,0.0103 l -0.11438,0 c -0.80508,-8.00941 -10.94365,-14.3438 -23.33853,-14.3438 -10.84338,0 -19.95927,4.84808 -22.60995,11.42383 -0.37654,0.93772 -0.62238,1.91056 -0.72265,2.90973 l -0.003,0 c 0,0.004 -0.002,0.008 -0.002,0.0103 l -0.11438,0 c -0.80508,-8.00941 -10.94365,-14.3438 -23.33853,-14.3438 -10.84338,0 -19.95851,4.84807 -22.6092,11.42311 -0.37728,0.93772 -0.62313,1.91127 -0.72339,2.91045 l -0.003,0 c 0,0.004 -0.002,0.008 -0.002,0.0103 l -0.11438,0 c -0.80508,-8.00942 -10.94365,-14.3438 -23.33853,-14.3438 -10.84338,0 -19.95852,4.84807 -22.60921,11.4231 -0.37728,0.93773 -0.62312,1.91129 -0.72338,2.91045 l -0.003,0 c 0,0.004 -0.002,0.008 -0.002,0.0103 l -0.11437,0 c -0.80509,-8.00941 -10.94366,-14.34379 -23.33854,-14.34379 -10.84338,0 -19.95925,4.84807 -22.60993,11.4231 -0.37656,0.93772 -0.6224,1.91129 -0.72266,2.91045 l -0.003,0 c 0,0.004 -7.5e-4,0.008 -0.002,0.0103 l -0.11511,0 c -0.8036,-8.00941 -10.94143,-14.3438 -23.3378,-14.3438 -10.84338,0 -19.95925,4.84808 -22.60994,11.42311 -0.37655,0.93772 -0.62239,1.91129 -0.72264,2.91045 l -0.003,0 c 0,0.004 -7.4e-4,0.008 -0.002,0.0103 l -0.11511,0 c -0.8036,-8.00941 -10.94142,-14.3438 -23.33779,-14.3438 -10.84339,0 -24.89522,8.48193 -24.89522,14.3438 0,-5.68705 -12.7499,-14.3438 -21.89473,-14.3438 -12.39563,0 -22.53345,6.33439 -23.33705,14.3438 l -0.11512,0 c -0.8036,-8.00941 -10.94143,-14.3438 -23.33779,-14.3438 -12.39563,0 -22.53345,6.33439 -23.33705,14.3438 l -0.11512,0 c -0.80359,-8.00941 -10.94141,-14.3438 -23.33779,-14.3438 -12.39562,0 -22.53344,6.33439 -23.33704,14.3438 l -0.11512,0 c -0.8036,-8.00941 -10.94142,-14.3438 -23.33779,-14.3438 -12.39562,0 -22.53345,6.33439 -23.33705,14.3438 l -2.55562,0 0,-74.69819 187.16428,0 0,-0.0103 416.71801,0 0,64.85283 c -4.23114,-2.77148 -10.06355,-4.4882 -16.51016,-4.4882"
         style="fill:#3ca4a8;fill-opacity:1;fill-rule:nonzero;stroke:none"
         id="path10219"
         inkscape:connector-curvature="0" />
    </g>
  </g>
</svg>
